<mxfile host="app.diagrams.net" modified="2021-09-20T19:32:31.281Z" agent="5.0 (Windows NT 10.0; Win64; x64) AppleWebKit/537.36 (KHTML, like Gecko) Chrome/93.0.4577.82 Safari/537.36" etag="mw8x9rvshPBupD-HczOp" version="15.2.7" type="github" pages="4">
  <diagram id="K98B_f_0fbjPZHcNeVPy" name="1.1">
    <mxGraphModel dx="1248" dy="625" grid="0" gridSize="10" guides="1" tooltips="1" connect="1" arrows="1" fold="1" page="1" pageScale="1" pageWidth="850" pageHeight="1100" math="0" shadow="0">
      <root>
        <mxCell id="0" />
        <mxCell id="1" parent="0" />
        <mxCell id="fHymZKiLAXWOaxaEmcu1-37" style="edgeStyle=orthogonalEdgeStyle;rounded=0;orthogonalLoop=1;jettySize=auto;html=1;startArrow=block;startFill=0;endArrow=none;endFill=0;" parent="1" source="fHymZKiLAXWOaxaEmcu1-5" target="fHymZKiLAXWOaxaEmcu1-25" edge="1">
          <mxGeometry relative="1" as="geometry" />
        </mxCell>
        <mxCell id="fHymZKiLAXWOaxaEmcu1-39" style="edgeStyle=orthogonalEdgeStyle;rounded=0;orthogonalLoop=1;jettySize=auto;html=1;startArrow=block;startFill=0;endArrow=none;endFill=0;" parent="1" source="fHymZKiLAXWOaxaEmcu1-5" target="fHymZKiLAXWOaxaEmcu1-29" edge="1">
          <mxGeometry relative="1" as="geometry" />
        </mxCell>
        <mxCell id="fHymZKiLAXWOaxaEmcu1-5" value="User" style="swimlane;fontStyle=1;childLayout=stackLayout;horizontal=1;startSize=26;horizontalStack=0;resizeParent=1;resizeParentMax=0;resizeLast=0;collapsible=1;marginBottom=0;align=center;fontSize=14;fillColor=#dae8fc;strokeColor=#6c8ebf;" parent="1" vertex="1">
          <mxGeometry x="380" y="40" width="160" height="206" as="geometry" />
        </mxCell>
        <mxCell id="fHymZKiLAXWOaxaEmcu1-9" value="emailAddress" style="text;strokeColor=none;fillColor=none;spacingLeft=4;spacingRight=4;overflow=hidden;rotatable=0;points=[[0,0.5],[1,0.5]];portConstraint=eastwest;fontSize=12;fontStyle=4" parent="fHymZKiLAXWOaxaEmcu1-5" vertex="1">
          <mxGeometry y="26" width="160" height="30" as="geometry" />
        </mxCell>
        <mxCell id="fHymZKiLAXWOaxaEmcu1-6" value="firstName" style="text;strokeColor=none;fillColor=none;spacingLeft=4;spacingRight=4;overflow=hidden;rotatable=0;points=[[0,0.5],[1,0.5]];portConstraint=eastwest;fontSize=12;" parent="fHymZKiLAXWOaxaEmcu1-5" vertex="1">
          <mxGeometry y="56" width="160" height="30" as="geometry" />
        </mxCell>
        <mxCell id="fHymZKiLAXWOaxaEmcu1-7" value="lastName" style="text;strokeColor=none;fillColor=none;spacingLeft=4;spacingRight=4;overflow=hidden;rotatable=0;points=[[0,0.5],[1,0.5]];portConstraint=eastwest;fontSize=12;" parent="fHymZKiLAXWOaxaEmcu1-5" vertex="1">
          <mxGeometry y="86" width="160" height="30" as="geometry" />
        </mxCell>
        <mxCell id="fHymZKiLAXWOaxaEmcu1-8" value="dateOfBirth" style="text;strokeColor=none;fillColor=none;spacingLeft=4;spacingRight=4;overflow=hidden;rotatable=0;points=[[0,0.5],[1,0.5]];portConstraint=eastwest;fontSize=12;" parent="fHymZKiLAXWOaxaEmcu1-5" vertex="1">
          <mxGeometry y="116" width="160" height="30" as="geometry" />
        </mxCell>
        <mxCell id="fHymZKiLAXWOaxaEmcu1-11" value="age()" style="text;strokeColor=none;fillColor=none;spacingLeft=4;spacingRight=4;overflow=hidden;rotatable=0;points=[[0,0.5],[1,0.5]];portConstraint=eastwest;fontSize=12;" parent="fHymZKiLAXWOaxaEmcu1-5" vertex="1">
          <mxGeometry y="146" width="160" height="30" as="geometry" />
        </mxCell>
        <mxCell id="fHymZKiLAXWOaxaEmcu1-10" value="{ phoneNumber }" style="text;strokeColor=none;fillColor=none;spacingLeft=4;spacingRight=4;overflow=hidden;rotatable=0;points=[[0,0.5],[1,0.5]];portConstraint=eastwest;fontSize=12;" parent="fHymZKiLAXWOaxaEmcu1-5" vertex="1">
          <mxGeometry y="176" width="160" height="30" as="geometry" />
        </mxCell>
        <mxCell id="fHymZKiLAXWOaxaEmcu1-25" value="Guest" style="swimlane;fontStyle=1;childLayout=stackLayout;horizontal=1;startSize=26;horizontalStack=0;resizeParent=1;resizeParentMax=0;resizeLast=0;collapsible=1;marginBottom=0;align=center;fontSize=14;fillColor=#dae8fc;strokeColor=#6c8ebf;" parent="1" vertex="1">
          <mxGeometry x="540" y="330" width="160" height="90" as="geometry" />
        </mxCell>
        <mxCell id="fHymZKiLAXWOaxaEmcu1-28" value="emailAddress" style="text;strokeColor=none;fillColor=none;spacingLeft=4;spacingRight=4;overflow=hidden;rotatable=0;points=[[0,0.5],[1,0.5]];portConstraint=eastwest;fontSize=12;labelBackgroundColor=none;fontColor=default;fontStyle=4" parent="fHymZKiLAXWOaxaEmcu1-25" vertex="1">
          <mxGeometry y="26" width="160" height="64" as="geometry" />
        </mxCell>
        <mxCell id="fHymZKiLAXWOaxaEmcu1-45" style="edgeStyle=orthogonalEdgeStyle;rounded=0;orthogonalLoop=1;jettySize=auto;html=1;entryX=1;entryY=0.5;entryDx=0;entryDy=0;startArrow=block;startFill=1;endArrow=none;endFill=0;exitX=0.002;exitY=0.169;exitDx=0;exitDy=0;exitPerimeter=0;" parent="1" source="fHymZKiLAXWOaxaEmcu1-29" target="fHymZKiLAXWOaxaEmcu1-43" edge="1">
          <mxGeometry relative="1" as="geometry">
            <mxPoint x="210" y="345" as="sourcePoint" />
            <Array as="points">
              <mxPoint x="200" y="345" />
            </Array>
          </mxGeometry>
        </mxCell>
        <mxCell id="fHymZKiLAXWOaxaEmcu1-29" value="Host" style="swimlane;fontStyle=1;childLayout=stackLayout;horizontal=1;startSize=26;horizontalStack=0;resizeParent=1;resizeParentMax=0;resizeLast=0;collapsible=1;marginBottom=0;align=center;fontSize=14;fillColor=#dae8fc;strokeColor=#6c8ebf;" parent="1" vertex="1">
          <mxGeometry x="220" y="330" width="160" height="90" as="geometry" />
        </mxCell>
        <mxCell id="fHymZKiLAXWOaxaEmcu1-30" value="SSN" style="text;strokeColor=none;fillColor=none;spacingLeft=4;spacingRight=4;overflow=hidden;rotatable=0;points=[[0,0.5],[1,0.5]];portConstraint=eastwest;fontSize=12;fontStyle=4" parent="fHymZKiLAXWOaxaEmcu1-29" vertex="1">
          <mxGeometry y="26" width="160" height="30" as="geometry" />
        </mxCell>
        <mxCell id="fHymZKiLAXWOaxaEmcu1-31" value="insurancePolicyID" style="text;strokeColor=none;fillColor=none;spacingLeft=4;spacingRight=4;overflow=hidden;rotatable=0;points=[[0,0.5],[1,0.5]];portConstraint=eastwest;fontSize=12;" parent="fHymZKiLAXWOaxaEmcu1-29" vertex="1">
          <mxGeometry y="56" width="160" height="34" as="geometry" />
        </mxCell>
        <mxCell id="fHymZKiLAXWOaxaEmcu1-42" value="Total . . . . . . .Â " style="text;strokeColor=none;fillColor=none;spacingLeft=4;spacingRight=4;overflow=hidden;rotatable=0;points=[[0,0.5],[1,0.5]];portConstraint=eastwest;fontSize=12;" parent="1" vertex="1">
          <mxGeometry x="383" y="254" width="80" height="30" as="geometry" />
        </mxCell>
        <mxCell id="fHymZKiLAXWOaxaEmcu1-51" style="edgeStyle=orthogonalEdgeStyle;rounded=0;orthogonalLoop=1;jettySize=auto;html=1;exitX=0.5;exitY=1;exitDx=0;exitDy=0;entryX=0.5;entryY=0;entryDx=0;entryDy=0;startArrow=none;startFill=0;endArrow=none;endFill=0;" parent="1" source="fHymZKiLAXWOaxaEmcu1-43" target="fHymZKiLAXWOaxaEmcu1-47" edge="1">
          <mxGeometry relative="1" as="geometry" />
        </mxCell>
        <mxCell id="fHymZKiLAXWOaxaEmcu1-43" value="Offers" style="shape=rhombus;perimeter=rhombusPerimeter;whiteSpace=wrap;html=1;align=center;fillColor=#f5f5f5;strokeColor=#666666;fontColor=#333333;" parent="1" vertex="1">
          <mxGeometry x="90" y="320" width="60" height="50" as="geometry" />
        </mxCell>
        <mxCell id="fHymZKiLAXWOaxaEmcu1-47" value="Lodging" style="swimlane;fontStyle=1;childLayout=stackLayout;horizontal=1;startSize=26;horizontalStack=0;resizeParent=1;resizeParentMax=0;resizeLast=0;collapsible=1;marginBottom=0;align=center;fontSize=14;fillColor=#dae8fc;strokeColor=#6c8ebf;" parent="1" vertex="1">
          <mxGeometry x="40" y="460" width="160" height="266" as="geometry" />
        </mxCell>
        <mxCell id="fHymZKiLAXWOaxaEmcu1-48" value="ID" style="text;strokeColor=none;fillColor=none;spacingLeft=4;spacingRight=4;overflow=hidden;rotatable=0;points=[[0,0.5],[1,0.5]];portConstraint=eastwest;fontSize=12;fontStyle=4" parent="fHymZKiLAXWOaxaEmcu1-47" vertex="1">
          <mxGeometry y="26" width="160" height="30" as="geometry" />
        </mxCell>
        <mxCell id="fHymZKiLAXWOaxaEmcu1-49" value="type" style="text;strokeColor=none;fillColor=none;spacingLeft=4;spacingRight=4;overflow=hidden;rotatable=0;points=[[0,0.5],[1,0.5]];portConstraint=eastwest;fontSize=12;" parent="fHymZKiLAXWOaxaEmcu1-47" vertex="1">
          <mxGeometry y="56" width="160" height="30" as="geometry" />
        </mxCell>
        <mxCell id="fHymZKiLAXWOaxaEmcu1-50" value="maxOccupancy" style="text;strokeColor=none;fillColor=none;spacingLeft=4;spacingRight=4;overflow=hidden;rotatable=0;points=[[0,0.5],[1,0.5]];portConstraint=eastwest;fontSize=12;" parent="fHymZKiLAXWOaxaEmcu1-47" vertex="1">
          <mxGeometry y="86" width="160" height="30" as="geometry" />
        </mxCell>
        <mxCell id="fHymZKiLAXWOaxaEmcu1-52" value="numBedrooms" style="text;strokeColor=none;fillColor=none;spacingLeft=4;spacingRight=4;overflow=hidden;rotatable=0;points=[[0,0.5],[1,0.5]];portConstraint=eastwest;fontSize=12;" parent="fHymZKiLAXWOaxaEmcu1-47" vertex="1">
          <mxGeometry y="116" width="160" height="30" as="geometry" />
        </mxCell>
        <mxCell id="fHymZKiLAXWOaxaEmcu1-53" value="numBeds" style="text;strokeColor=none;fillColor=none;spacingLeft=4;spacingRight=4;overflow=hidden;rotatable=0;points=[[0,0.5],[1,0.5]];portConstraint=eastwest;fontSize=12;" parent="fHymZKiLAXWOaxaEmcu1-47" vertex="1">
          <mxGeometry y="146" width="160" height="30" as="geometry" />
        </mxCell>
        <mxCell id="fHymZKiLAXWOaxaEmcu1-54" value="numBathrooms" style="text;strokeColor=none;fillColor=none;spacingLeft=4;spacingRight=4;overflow=hidden;rotatable=0;points=[[0,0.5],[1,0.5]];portConstraint=eastwest;fontSize=12;" parent="fHymZKiLAXWOaxaEmcu1-47" vertex="1">
          <mxGeometry y="176" width="160" height="30" as="geometry" />
        </mxCell>
        <mxCell id="fHymZKiLAXWOaxaEmcu1-55" value="pricePerNight" style="text;strokeColor=none;fillColor=none;spacingLeft=4;spacingRight=4;overflow=hidden;rotatable=0;points=[[0,0.5],[1,0.5]];portConstraint=eastwest;fontSize=12;" parent="fHymZKiLAXWOaxaEmcu1-47" vertex="1">
          <mxGeometry y="206" width="160" height="30" as="geometry" />
        </mxCell>
        <mxCell id="fHymZKiLAXWOaxaEmcu1-56" value="{ address }" style="text;strokeColor=none;fillColor=none;spacingLeft=4;spacingRight=4;overflow=hidden;rotatable=0;points=[[0,0.5],[1,0.5]];portConstraint=eastwest;fontSize=12;" parent="fHymZKiLAXWOaxaEmcu1-47" vertex="1">
          <mxGeometry y="236" width="160" height="30" as="geometry" />
        </mxCell>
        <mxCell id="fHymZKiLAXWOaxaEmcu1-60" style="edgeStyle=orthogonalEdgeStyle;rounded=0;orthogonalLoop=1;jettySize=auto;html=1;entryX=0.51;entryY=0.972;entryDx=0;entryDy=0;startArrow=none;startFill=0;endArrow=block;endFill=1;entryPerimeter=0;exitX=1;exitY=0.5;exitDx=0;exitDy=0;" parent="1" source="fHymZKiLAXWOaxaEmcu1-59" target="fHymZKiLAXWOaxaEmcu1-28" edge="1">
          <mxGeometry relative="1" as="geometry">
            <Array as="points">
              <mxPoint x="622" y="501" />
            </Array>
          </mxGeometry>
        </mxCell>
        <mxCell id="fHymZKiLAXWOaxaEmcu1-61" style="edgeStyle=orthogonalEdgeStyle;rounded=0;orthogonalLoop=1;jettySize=auto;html=1;exitX=0;exitY=0.5;exitDx=0;exitDy=0;entryX=1;entryY=0.5;entryDx=0;entryDy=0;startArrow=none;startFill=0;endArrow=none;endFill=0;" parent="1" source="fHymZKiLAXWOaxaEmcu1-59" target="fHymZKiLAXWOaxaEmcu1-48" edge="1">
          <mxGeometry relative="1" as="geometry">
            <Array as="points">
              <mxPoint x="340" y="501" />
            </Array>
          </mxGeometry>
        </mxCell>
        <mxCell id="fHymZKiLAXWOaxaEmcu1-66" style="edgeStyle=orthogonalEdgeStyle;rounded=0;orthogonalLoop=1;jettySize=auto;html=1;exitX=0.5;exitY=1;exitDx=0;exitDy=0;startArrow=block;startFill=1;endArrow=none;endFill=0;entryX=0.5;entryY=0;entryDx=0;entryDy=0;" parent="1" source="fHymZKiLAXWOaxaEmcu1-59" target="fHymZKiLAXWOaxaEmcu1-62" edge="1">
          <mxGeometry relative="1" as="geometry">
            <mxPoint x="460" y="560" as="targetPoint" />
          </mxGeometry>
        </mxCell>
        <mxCell id="fHymZKiLAXWOaxaEmcu1-59" value="Books" style="shape=rhombus;perimeter=rhombusPerimeter;whiteSpace=wrap;html=1;align=center;fillColor=#f5f5f5;strokeColor=#666666;fontColor=#333333;" parent="1" vertex="1">
          <mxGeometry x="430" y="477" width="60" height="48" as="geometry" />
        </mxCell>
        <mxCell id="fHymZKiLAXWOaxaEmcu1-62" value="Booking" style="swimlane;fontStyle=1;childLayout=stackLayout;horizontal=1;startSize=26;horizontalStack=0;resizeParent=1;resizeParentMax=0;resizeLast=0;collapsible=1;marginBottom=0;align=center;fontSize=14;fillColor=#dae8fc;strokeColor=#6c8ebf;" parent="1" vertex="1">
          <mxGeometry x="380" y="580" width="160" height="146" as="geometry" />
        </mxCell>
        <mxCell id="fHymZKiLAXWOaxaEmcu1-71" value="checkInDate" style="text;strokeColor=none;fillColor=none;spacingLeft=4;spacingRight=4;overflow=hidden;rotatable=0;points=[[0,0.5],[1,0.5]];portConstraint=eastwest;fontSize=12;" parent="fHymZKiLAXWOaxaEmcu1-62" vertex="1">
          <mxGeometry y="26" width="160" height="30" as="geometry" />
        </mxCell>
        <mxCell id="fHymZKiLAXWOaxaEmcu1-72" value="checkOutDate" style="text;strokeColor=none;fillColor=none;spacingLeft=4;spacingRight=4;overflow=hidden;rotatable=0;points=[[0,0.5],[1,0.5]];portConstraint=eastwest;fontSize=12;" parent="fHymZKiLAXWOaxaEmcu1-62" vertex="1">
          <mxGeometry y="56" width="160" height="30" as="geometry" />
        </mxCell>
        <mxCell id="fHymZKiLAXWOaxaEmcu1-73" value="numGuests" style="text;strokeColor=none;fillColor=none;spacingLeft=4;spacingRight=4;overflow=hidden;rotatable=0;points=[[0,0.5],[1,0.5]];portConstraint=eastwest;fontSize=12;" parent="fHymZKiLAXWOaxaEmcu1-62" vertex="1">
          <mxGeometry y="86" width="160" height="30" as="geometry" />
        </mxCell>
        <mxCell id="fHymZKiLAXWOaxaEmcu1-74" value="bookingCost" style="text;strokeColor=none;fillColor=none;spacingLeft=4;spacingRight=4;overflow=hidden;rotatable=0;points=[[0,0.5],[1,0.5]];portConstraint=eastwest;fontSize=12;" parent="fHymZKiLAXWOaxaEmcu1-62" vertex="1">
          <mxGeometry y="116" width="160" height="30" as="geometry" />
        </mxCell>
        <mxCell id="fHymZKiLAXWOaxaEmcu1-92" style="edgeStyle=orthogonalEdgeStyle;rounded=0;orthogonalLoop=1;jettySize=auto;html=1;fontColor=#000000;startArrow=none;startFill=0;endArrow=none;endFill=0;exitX=0.5;exitY=0;exitDx=0;exitDy=0;" parent="1" source="fHymZKiLAXWOaxaEmcu1-140" target="fHymZKiLAXWOaxaEmcu1-62" edge="1">
          <mxGeometry relative="1" as="geometry">
            <Array as="points">
              <mxPoint x="418" y="730" />
              <mxPoint x="418" y="730" />
            </Array>
          </mxGeometry>
        </mxCell>
        <mxCell id="fHymZKiLAXWOaxaEmcu1-79" value="Cancellation" style="swimlane;fontStyle=1;childLayout=stackLayout;horizontal=1;startSize=26;horizontalStack=0;resizeParent=1;resizeParentMax=0;resizeLast=0;collapsible=1;marginBottom=0;align=center;fontSize=14;fillColor=#dae8fc;strokeColor=#6c8ebf;labelBackgroundColor=none;fontColor=#000000;" parent="1" vertex="1">
          <mxGeometry x="290" y="840" width="160" height="150" as="geometry" />
        </mxCell>
        <mxCell id="fHymZKiLAXWOaxaEmcu1-80" value="date" style="text;strokeColor=none;fillColor=none;spacingLeft=4;spacingRight=4;overflow=hidden;rotatable=0;points=[[0,0.5],[1,0.5]];portConstraint=eastwest;fontSize=12;" parent="fHymZKiLAXWOaxaEmcu1-79" vertex="1">
          <mxGeometry y="26" width="160" height="30" as="geometry" />
        </mxCell>
        <mxCell id="fHymZKiLAXWOaxaEmcu1-81" value="reason" style="text;strokeColor=none;fillColor=none;spacingLeft=4;spacingRight=4;overflow=hidden;rotatable=0;points=[[0,0.5],[1,0.5]];portConstraint=eastwest;fontSize=12;" parent="fHymZKiLAXWOaxaEmcu1-79" vertex="1">
          <mxGeometry y="56" width="160" height="30" as="geometry" />
        </mxCell>
        <mxCell id="fHymZKiLAXWOaxaEmcu1-82" value="refundAmount" style="text;strokeColor=none;fillColor=none;spacingLeft=4;spacingRight=4;overflow=hidden;rotatable=0;points=[[0,0.5],[1,0.5]];portConstraint=eastwest;fontSize=12;" parent="fHymZKiLAXWOaxaEmcu1-79" vertex="1">
          <mxGeometry y="86" width="160" height="64" as="geometry" />
        </mxCell>
        <mxCell id="fHymZKiLAXWOaxaEmcu1-91" style="edgeStyle=orthogonalEdgeStyle;rounded=0;orthogonalLoop=1;jettySize=auto;html=1;fontColor=#000000;startArrow=none;startFill=0;endArrow=block;endFill=1;exitX=0.5;exitY=0;exitDx=0;exitDy=0;" parent="1" target="fHymZKiLAXWOaxaEmcu1-62" edge="1">
          <mxGeometry relative="1" as="geometry">
            <mxPoint x="500" y="760" as="sourcePoint" />
            <Array as="points">
              <mxPoint x="500" y="750" />
              <mxPoint x="500" y="750" />
            </Array>
          </mxGeometry>
        </mxCell>
        <mxCell id="fHymZKiLAXWOaxaEmcu1-87" value="Payment_Info" style="swimlane;fontStyle=1;childLayout=stackLayout;horizontal=1;startSize=26;horizontalStack=0;resizeParent=1;resizeParentMax=0;resizeLast=0;collapsible=1;marginBottom=0;align=center;fontSize=14;fillColor=#dae8fc;strokeColor=#6c8ebf;labelBackgroundColor=none;fontColor=#000000;" parent="1" vertex="1">
          <mxGeometry x="470" y="840" width="160" height="150" as="geometry" />
        </mxCell>
        <mxCell id="fHymZKiLAXWOaxaEmcu1-88" value="creditCardNum" style="text;strokeColor=none;fillColor=none;spacingLeft=4;spacingRight=4;overflow=hidden;rotatable=0;points=[[0,0.5],[1,0.5]];portConstraint=eastwest;fontSize=12;" parent="fHymZKiLAXWOaxaEmcu1-87" vertex="1">
          <mxGeometry y="26" width="160" height="30" as="geometry" />
        </mxCell>
        <mxCell id="fHymZKiLAXWOaxaEmcu1-89" value="expireDate" style="text;strokeColor=none;fillColor=none;spacingLeft=4;spacingRight=4;overflow=hidden;rotatable=0;points=[[0,0.5],[1,0.5]];portConstraint=eastwest;fontSize=12;" parent="fHymZKiLAXWOaxaEmcu1-87" vertex="1">
          <mxGeometry y="56" width="160" height="30" as="geometry" />
        </mxCell>
        <mxCell id="fHymZKiLAXWOaxaEmcu1-90" value="transactionAmt" style="text;strokeColor=none;fillColor=none;spacingLeft=4;spacingRight=4;overflow=hidden;rotatable=0;points=[[0,0.5],[1,0.5]];portConstraint=eastwest;fontSize=12;" parent="fHymZKiLAXWOaxaEmcu1-87" vertex="1">
          <mxGeometry y="86" width="160" height="30" as="geometry" />
        </mxCell>
        <mxCell id="fHymZKiLAXWOaxaEmcu1-143" value="timestamp" style="text;strokeColor=none;fillColor=none;spacingLeft=4;spacingRight=4;overflow=hidden;rotatable=0;points=[[0,0.5],[1,0.5]];portConstraint=eastwest;fontSize=12;" parent="fHymZKiLAXWOaxaEmcu1-87" vertex="1">
          <mxGeometry y="116" width="160" height="34" as="geometry" />
        </mxCell>
        <mxCell id="fHymZKiLAXWOaxaEmcu1-110" style="edgeStyle=orthogonalEdgeStyle;rounded=0;orthogonalLoop=1;jettySize=auto;html=1;fontColor=#000000;startArrow=none;startFill=0;endArrow=none;endFill=0;" parent="1" source="fHymZKiLAXWOaxaEmcu1-124" target="fHymZKiLAXWOaxaEmcu1-47" edge="1">
          <mxGeometry relative="1" as="geometry">
            <Array as="points">
              <mxPoint x="82" y="750" />
              <mxPoint x="82" y="750" />
            </Array>
          </mxGeometry>
        </mxCell>
        <mxCell id="fHymZKiLAXWOaxaEmcu1-93" value="Discount" style="swimlane;fontStyle=1;childLayout=stackLayout;horizontal=1;startSize=26;horizontalStack=0;resizeParent=1;resizeParentMax=0;resizeLast=0;collapsible=1;marginBottom=0;align=center;fontSize=14;fillColor=#dae8fc;strokeColor=#6c8ebf;labelBackgroundColor=none;fontColor=#000000;" parent="1" vertex="1">
          <mxGeometry x="40" y="840" width="160" height="150" as="geometry" />
        </mxCell>
        <mxCell id="fHymZKiLAXWOaxaEmcu1-94" value="minNumNightStays" style="text;strokeColor=none;fillColor=none;spacingLeft=4;spacingRight=4;overflow=hidden;rotatable=0;points=[[0,0.5],[1,0.5]];portConstraint=eastwest;fontSize=12;dashed=1;html=1;" parent="fHymZKiLAXWOaxaEmcu1-93" vertex="1">
          <mxGeometry y="26" width="160" height="30" as="geometry" />
        </mxCell>
        <mxCell id="fHymZKiLAXWOaxaEmcu1-95" value="maxNightsBeforeChkIn" style="text;strokeColor=none;fillColor=none;spacingLeft=4;spacingRight=4;overflow=hidden;rotatable=0;points=[[0,0.5],[1,0.5]];portConstraint=eastwest;fontSize=12;" parent="fHymZKiLAXWOaxaEmcu1-93" vertex="1">
          <mxGeometry y="56" width="160" height="30" as="geometry" />
        </mxCell>
        <mxCell id="fHymZKiLAXWOaxaEmcu1-96" value="percentage" style="text;strokeColor=none;fillColor=none;spacingLeft=4;spacingRight=4;overflow=hidden;rotatable=0;points=[[0,0.5],[1,0.5]];portConstraint=eastwest;fontSize=12;" parent="fHymZKiLAXWOaxaEmcu1-93" vertex="1">
          <mxGeometry y="86" width="160" height="64" as="geometry" />
        </mxCell>
        <mxCell id="fHymZKiLAXWOaxaEmcu1-154" style="edgeStyle=orthogonalEdgeStyle;rounded=0;orthogonalLoop=1;jettySize=auto;html=1;exitX=1;exitY=0.5;exitDx=0;exitDy=0;fontColor=#000000;startArrow=block;startFill=1;endArrow=block;endFill=1;" parent="1" source="fHymZKiLAXWOaxaEmcu1-113" target="fHymZKiLAXWOaxaEmcu1-149" edge="1">
          <mxGeometry relative="1" as="geometry" />
        </mxCell>
        <mxCell id="fHymZKiLAXWOaxaEmcu1-113" value="Referral" style="shape=rhombus;perimeter=rhombusPerimeter;whiteSpace=wrap;html=1;align=center;labelBackgroundColor=none;fontColor=#333333;fillColor=#f5f5f5;strokeColor=#666666;" parent="1" vertex="1">
          <mxGeometry x="570" y="118.75" width="60" height="48.5" as="geometry" />
        </mxCell>
        <mxCell id="fHymZKiLAXWOaxaEmcu1-115" style="edgeStyle=orthogonalEdgeStyle;rounded=0;orthogonalLoop=1;jettySize=auto;html=1;exitX=1;exitY=0.5;exitDx=0;exitDy=0;entryX=0.5;entryY=1;entryDx=0;entryDy=0;fontColor=#000000;startArrow=block;startFill=1;endArrow=none;endFill=0;" parent="1" source="fHymZKiLAXWOaxaEmcu1-11" target="fHymZKiLAXWOaxaEmcu1-113" edge="1">
          <mxGeometry relative="1" as="geometry" />
        </mxCell>
        <mxCell id="fHymZKiLAXWOaxaEmcu1-116" style="edgeStyle=orthogonalEdgeStyle;rounded=0;orthogonalLoop=1;jettySize=auto;html=1;exitX=1;exitY=0.5;exitDx=0;exitDy=0;fontColor=#000000;startArrow=block;startFill=1;endArrow=none;endFill=0;" parent="1" source="fHymZKiLAXWOaxaEmcu1-9" target="fHymZKiLAXWOaxaEmcu1-113" edge="1">
          <mxGeometry relative="1" as="geometry">
            <mxPoint x="650" y="110" as="targetPoint" />
          </mxGeometry>
        </mxCell>
        <mxCell id="fHymZKiLAXWOaxaEmcu1-120" value="" style="line;strokeWidth=1;rotatable=0;dashed=1;labelPosition=right;align=left;verticalAlign=middle;spacingTop=0;spacingLeft=6;points=[];portConstraint=eastwest;labelBackgroundColor=none;fontColor=#000000;fillColor=default;html=1;connectable=0;allowArrows=0;dropTarget=1;" parent="1" vertex="1">
          <mxGeometry x="47" y="883" width="103" height="10" as="geometry" />
        </mxCell>
        <mxCell id="fHymZKiLAXWOaxaEmcu1-121" value="" style="line;strokeWidth=1;rotatable=0;dashed=1;labelPosition=right;align=left;verticalAlign=middle;spacingTop=0;spacingLeft=6;points=[];portConstraint=eastwest;labelBackgroundColor=none;fontColor=#000000;fillColor=default;html=1;connectable=0;allowArrows=0;dropTarget=1;" parent="1" vertex="1">
          <mxGeometry x="47" y="915" width="123" height="11" as="geometry" />
        </mxCell>
        <mxCell id="fHymZKiLAXWOaxaEmcu1-122" value="" style="line;strokeWidth=1;rotatable=0;dashed=1;labelPosition=right;align=left;verticalAlign=middle;spacingTop=0;spacingLeft=6;points=[];portConstraint=eastwest;labelBackgroundColor=none;fontColor=#000000;fillColor=default;html=1;connectable=0;allowArrows=0;dropTarget=1;" parent="1" vertex="1">
          <mxGeometry x="47" y="943" width="63" height="11" as="geometry" />
        </mxCell>
        <mxCell id="fHymZKiLAXWOaxaEmcu1-124" value="Offered" style="shape=rhombus;double=1;perimeter=rhombusPerimeter;whiteSpace=wrap;html=1;align=center;labelBackgroundColor=none;fontColor=#333333;strokeColor=#666666;fillColor=#f5f5f5;" parent="1" vertex="1">
          <mxGeometry x="53.5" y="760" width="56.5" height="50" as="geometry" />
        </mxCell>
        <mxCell id="fHymZKiLAXWOaxaEmcu1-126" style="edgeStyle=orthogonalEdgeStyle;rounded=0;orthogonalLoop=1;jettySize=auto;html=1;fontColor=#000000;startArrow=block;startFill=1;endArrow=none;endFill=0;entryX=0.5;entryY=1;entryDx=0;entryDy=0;" parent="1" source="fHymZKiLAXWOaxaEmcu1-93" target="fHymZKiLAXWOaxaEmcu1-124" edge="1">
          <mxGeometry relative="1" as="geometry">
            <mxPoint x="100" y="890" as="sourcePoint" />
            <mxPoint x="130" y="726" as="targetPoint" />
            <Array as="points">
              <mxPoint x="82" y="860" />
              <mxPoint x="82" y="860" />
            </Array>
          </mxGeometry>
        </mxCell>
        <mxCell id="fHymZKiLAXWOaxaEmcu1-131" style="edgeStyle=orthogonalEdgeStyle;rounded=0;orthogonalLoop=1;jettySize=auto;html=1;fontColor=#000000;startArrow=none;startFill=0;endArrow=block;endFill=1;" parent="1" source="fHymZKiLAXWOaxaEmcu1-132" target="fHymZKiLAXWOaxaEmcu1-47" edge="1">
          <mxGeometry relative="1" as="geometry">
            <mxPoint x="165" y="726" as="targetPoint" />
            <Array as="points">
              <mxPoint x="160" y="760" />
              <mxPoint x="160" y="760" />
            </Array>
          </mxGeometry>
        </mxCell>
        <mxCell id="fHymZKiLAXWOaxaEmcu1-132" value="Offers" style="shape=rhombus;double=1;perimeter=rhombusPerimeter;whiteSpace=wrap;html=1;align=center;labelBackgroundColor=none;fontColor=#333333;strokeColor=#666666;fillColor=#f5f5f5;" parent="1" vertex="1">
          <mxGeometry x="130" y="760" width="60" height="50" as="geometry" />
        </mxCell>
        <mxCell id="fHymZKiLAXWOaxaEmcu1-133" style="edgeStyle=orthogonalEdgeStyle;rounded=0;orthogonalLoop=1;jettySize=auto;html=1;fontColor=#000000;startArrow=none;startFill=0;endArrow=none;endFill=0;entryX=0.5;entryY=1;entryDx=0;entryDy=0;" parent="1" source="fHymZKiLAXWOaxaEmcu1-93" target="fHymZKiLAXWOaxaEmcu1-132" edge="1">
          <mxGeometry relative="1" as="geometry">
            <mxPoint x="165" y="850" as="sourcePoint" />
            <mxPoint x="200" y="726" as="targetPoint" />
            <Array as="points">
              <mxPoint x="160" y="810" />
            </Array>
          </mxGeometry>
        </mxCell>
        <mxCell id="fHymZKiLAXWOaxaEmcu1-136" value="Offers" style="shape=rhombus;perimeter=rhombusPerimeter;whiteSpace=wrap;html=1;align=center;labelBackgroundColor=none;fontColor=#333333;fillColor=#f5f5f5;strokeColor=#666666;" parent="1" vertex="1">
          <mxGeometry x="130" y="760" width="60" height="50" as="geometry" />
        </mxCell>
        <mxCell id="fHymZKiLAXWOaxaEmcu1-137" value="" style="line;strokeWidth=1;rotatable=0;dashed=1;labelPosition=right;align=left;verticalAlign=middle;spacingTop=0;spacingLeft=6;points=[];portConstraint=eastwest;labelBackgroundColor=none;fontColor=#000000;fillColor=default;html=1;connectable=0;allowArrows=0;dropTarget=1;" parent="1" vertex="1">
          <mxGeometry x="297" y="883" width="23" height="10" as="geometry" />
        </mxCell>
        <mxCell id="fHymZKiLAXWOaxaEmcu1-138" value="" style="line;strokeWidth=1;rotatable=0;dashed=1;labelPosition=right;align=left;verticalAlign=middle;spacingTop=0;spacingLeft=6;points=[];portConstraint=eastwest;labelBackgroundColor=none;fontColor=#000000;fillColor=default;html=1;connectable=0;allowArrows=0;dropTarget=1;" parent="1" vertex="1">
          <mxGeometry x="297" y="915" width="33" height="11" as="geometry" />
        </mxCell>
        <mxCell id="fHymZKiLAXWOaxaEmcu1-139" value="" style="line;strokeWidth=1;rotatable=0;dashed=1;labelPosition=right;align=left;verticalAlign=middle;spacingTop=0;spacingLeft=6;points=[];portConstraint=eastwest;labelBackgroundColor=none;fontColor=#000000;fillColor=default;html=1;connectable=0;allowArrows=0;dropTarget=1;" parent="1" vertex="1">
          <mxGeometry x="297" y="943" width="73" height="11" as="geometry" />
        </mxCell>
        <mxCell id="fHymZKiLAXWOaxaEmcu1-140" value="cancelled" style="shape=rhombus;double=1;perimeter=rhombusPerimeter;whiteSpace=wrap;html=1;align=center;labelBackgroundColor=none;fontColor=#333333;strokeColor=#666666;fillColor=#f5f5f5;" parent="1" vertex="1">
          <mxGeometry x="380" y="760" width="76.5" height="50" as="geometry" />
        </mxCell>
        <mxCell id="fHymZKiLAXWOaxaEmcu1-141" style="edgeStyle=orthogonalEdgeStyle;rounded=0;orthogonalLoop=1;jettySize=auto;html=1;fontColor=#000000;startArrow=none;startFill=0;endArrow=none;endFill=0;entryX=0.5;entryY=1;entryDx=0;entryDy=0;shape=link;" parent="1" source="fHymZKiLAXWOaxaEmcu1-79" target="fHymZKiLAXWOaxaEmcu1-140" edge="1">
          <mxGeometry relative="1" as="geometry">
            <mxPoint x="401.7500000000002" y="770" as="sourcePoint" />
            <mxPoint x="430" y="706" as="targetPoint" />
            <Array as="points">
              <mxPoint x="418" y="830" />
              <mxPoint x="418" y="830" />
            </Array>
          </mxGeometry>
        </mxCell>
        <mxCell id="fHymZKiLAXWOaxaEmcu1-144" style="edgeStyle=orthogonalEdgeStyle;rounded=0;orthogonalLoop=1;jettySize=auto;html=1;fontColor=#000000;startArrow=block;startFill=1;endArrow=none;endFill=0;entryX=0.5;entryY=1;entryDx=0;entryDy=0;" parent="1" source="fHymZKiLAXWOaxaEmcu1-87" edge="1">
          <mxGeometry relative="1" as="geometry">
            <mxPoint x="610" y="770" as="sourcePoint" />
            <mxPoint x="500" y="810" as="targetPoint" />
            <Array as="points">
              <mxPoint x="500" y="780" />
              <mxPoint x="500" y="780" />
            </Array>
          </mxGeometry>
        </mxCell>
        <mxCell id="fHymZKiLAXWOaxaEmcu1-149" value="Referral" style="swimlane;fontStyle=1;childLayout=stackLayout;horizontal=1;startSize=26;horizontalStack=0;resizeParent=1;resizeParentMax=0;resizeLast=0;collapsible=1;marginBottom=0;align=center;fontSize=14;fillColor=#dae8fc;strokeColor=#6c8ebf;labelBackgroundColor=none;fontColor=#000000;html=1;" parent="1" vertex="1">
          <mxGeometry x="680" y="115" width="130" height="56" as="geometry" />
        </mxCell>
        <mxCell id="fHymZKiLAXWOaxaEmcu1-150" value="creditAmount" style="text;strokeColor=none;fillColor=none;spacingLeft=4;spacingRight=4;overflow=hidden;rotatable=0;points=[[0,0.5],[1,0.5]];portConstraint=eastwest;fontSize=12;" parent="fHymZKiLAXWOaxaEmcu1-149" vertex="1">
          <mxGeometry y="26" width="130" height="30" as="geometry" />
        </mxCell>
        <mxCell id="fHymZKiLAXWOaxaEmcu1-156" value="Uses" style="shape=rhombus;perimeter=rhombusPerimeter;whiteSpace=wrap;html=1;align=center;labelBackgroundColor=none;fontColor=#333333;fillColor=#f5f5f5;strokeColor=#666666;" parent="1" vertex="1">
          <mxGeometry x="470" y="760" width="60" height="50" as="geometry" />
        </mxCell>
      </root>
    </mxGraphModel>
  </diagram>
  <diagram id="y16PTQL2EchzaLGqpcIf" name="1.2">
    <mxGraphModel dx="1248" dy="625" grid="0" gridSize="10" guides="1" tooltips="1" connect="1" arrows="1" fold="1" page="1" pageScale="1" pageWidth="850" pageHeight="1100" math="0" shadow="0">
      <root>
        <mxCell id="RHxia8tkyUF-FtN3ZOdX-0" />
        <mxCell id="RHxia8tkyUF-FtN3ZOdX-1" parent="RHxia8tkyUF-FtN3ZOdX-0" />
        <mxCell id="RHxia8tkyUF-FtN3ZOdX-2" style="edgeStyle=orthogonalEdgeStyle;rounded=0;orthogonalLoop=1;jettySize=auto;html=1;startArrow=block;startFill=0;endArrow=none;endFill=0;" parent="RHxia8tkyUF-FtN3ZOdX-1" source="RHxia8tkyUF-FtN3ZOdX-4" target="RHxia8tkyUF-FtN3ZOdX-11" edge="1">
          <mxGeometry relative="1" as="geometry" />
        </mxCell>
        <mxCell id="RHxia8tkyUF-FtN3ZOdX-3" style="edgeStyle=orthogonalEdgeStyle;rounded=0;orthogonalLoop=1;jettySize=auto;html=1;startArrow=block;startFill=0;endArrow=none;endFill=0;" parent="RHxia8tkyUF-FtN3ZOdX-1" source="RHxia8tkyUF-FtN3ZOdX-4" target="RHxia8tkyUF-FtN3ZOdX-14" edge="1">
          <mxGeometry relative="1" as="geometry" />
        </mxCell>
        <mxCell id="RHxia8tkyUF-FtN3ZOdX-4" value="User" style="swimlane;fontStyle=1;childLayout=stackLayout;horizontal=1;startSize=26;horizontalStack=0;resizeParent=1;resizeParentMax=0;resizeLast=0;collapsible=1;marginBottom=0;align=center;fontSize=14;fillColor=#dae8fc;strokeColor=#6c8ebf;" parent="RHxia8tkyUF-FtN3ZOdX-1" vertex="1">
          <mxGeometry x="380" y="40" width="160" height="206" as="geometry" />
        </mxCell>
        <mxCell id="RHxia8tkyUF-FtN3ZOdX-5" value="emailAddress" style="text;strokeColor=none;fillColor=none;spacingLeft=4;spacingRight=4;overflow=hidden;rotatable=0;points=[[0,0.5],[1,0.5]];portConstraint=eastwest;fontSize=12;fontStyle=4" parent="RHxia8tkyUF-FtN3ZOdX-4" vertex="1">
          <mxGeometry y="26" width="160" height="30" as="geometry" />
        </mxCell>
        <mxCell id="RHxia8tkyUF-FtN3ZOdX-6" value="firstName" style="text;strokeColor=none;fillColor=none;spacingLeft=4;spacingRight=4;overflow=hidden;rotatable=0;points=[[0,0.5],[1,0.5]];portConstraint=eastwest;fontSize=12;" parent="RHxia8tkyUF-FtN3ZOdX-4" vertex="1">
          <mxGeometry y="56" width="160" height="30" as="geometry" />
        </mxCell>
        <mxCell id="RHxia8tkyUF-FtN3ZOdX-7" value="lastName" style="text;strokeColor=none;fillColor=none;spacingLeft=4;spacingRight=4;overflow=hidden;rotatable=0;points=[[0,0.5],[1,0.5]];portConstraint=eastwest;fontSize=12;" parent="RHxia8tkyUF-FtN3ZOdX-4" vertex="1">
          <mxGeometry y="86" width="160" height="30" as="geometry" />
        </mxCell>
        <mxCell id="RHxia8tkyUF-FtN3ZOdX-8" value="dateOfBirth" style="text;strokeColor=none;fillColor=none;spacingLeft=4;spacingRight=4;overflow=hidden;rotatable=0;points=[[0,0.5],[1,0.5]];portConstraint=eastwest;fontSize=12;" parent="RHxia8tkyUF-FtN3ZOdX-4" vertex="1">
          <mxGeometry y="116" width="160" height="30" as="geometry" />
        </mxCell>
        <mxCell id="RHxia8tkyUF-FtN3ZOdX-9" value="age()" style="text;strokeColor=none;fillColor=none;spacingLeft=4;spacingRight=4;overflow=hidden;rotatable=0;points=[[0,0.5],[1,0.5]];portConstraint=eastwest;fontSize=12;" parent="RHxia8tkyUF-FtN3ZOdX-4" vertex="1">
          <mxGeometry y="146" width="160" height="30" as="geometry" />
        </mxCell>
        <mxCell id="RHxia8tkyUF-FtN3ZOdX-10" value="{ phoneNumber }" style="text;strokeColor=none;fillColor=none;spacingLeft=4;spacingRight=4;overflow=hidden;rotatable=0;points=[[0,0.5],[1,0.5]];portConstraint=eastwest;fontSize=12;" parent="RHxia8tkyUF-FtN3ZOdX-4" vertex="1">
          <mxGeometry y="176" width="160" height="30" as="geometry" />
        </mxCell>
        <mxCell id="RHxia8tkyUF-FtN3ZOdX-11" value="Guest" style="swimlane;fontStyle=1;childLayout=stackLayout;horizontal=1;startSize=26;horizontalStack=0;resizeParent=1;resizeParentMax=0;resizeLast=0;collapsible=1;marginBottom=0;align=center;fontSize=14;fillColor=#dae8fc;strokeColor=#6c8ebf;" parent="RHxia8tkyUF-FtN3ZOdX-1" vertex="1">
          <mxGeometry x="540" y="330" width="160" height="90" as="geometry" />
        </mxCell>
        <mxCell id="RHxia8tkyUF-FtN3ZOdX-12" value="emailAddress" style="text;strokeColor=none;fillColor=none;spacingLeft=4;spacingRight=4;overflow=hidden;rotatable=0;points=[[0,0.5],[1,0.5]];portConstraint=eastwest;fontSize=12;labelBackgroundColor=none;fontColor=default;fontStyle=4" parent="RHxia8tkyUF-FtN3ZOdX-11" vertex="1">
          <mxGeometry y="26" width="160" height="64" as="geometry" />
        </mxCell>
        <mxCell id="RHxia8tkyUF-FtN3ZOdX-13" style="edgeStyle=orthogonalEdgeStyle;rounded=0;orthogonalLoop=1;jettySize=auto;html=1;entryX=1;entryY=0.5;entryDx=0;entryDy=0;startArrow=block;startFill=1;endArrow=none;endFill=0;exitX=0.002;exitY=0.169;exitDx=0;exitDy=0;exitPerimeter=0;" parent="RHxia8tkyUF-FtN3ZOdX-1" source="RHxia8tkyUF-FtN3ZOdX-14" target="RHxia8tkyUF-FtN3ZOdX-19" edge="1">
          <mxGeometry relative="1" as="geometry">
            <mxPoint x="210" y="345" as="sourcePoint" />
            <Array as="points">
              <mxPoint x="200" y="345" />
            </Array>
          </mxGeometry>
        </mxCell>
        <mxCell id="RHxia8tkyUF-FtN3ZOdX-14" value="Host" style="swimlane;fontStyle=1;childLayout=stackLayout;horizontal=1;startSize=26;horizontalStack=0;resizeParent=1;resizeParentMax=0;resizeLast=0;collapsible=1;marginBottom=0;align=center;fontSize=14;fillColor=#dae8fc;strokeColor=#6c8ebf;" parent="RHxia8tkyUF-FtN3ZOdX-1" vertex="1">
          <mxGeometry x="220" y="330" width="160" height="90" as="geometry" />
        </mxCell>
        <mxCell id="RHxia8tkyUF-FtN3ZOdX-15" value="SSN" style="text;strokeColor=none;fillColor=none;spacingLeft=4;spacingRight=4;overflow=hidden;rotatable=0;points=[[0,0.5],[1,0.5]];portConstraint=eastwest;fontSize=12;fontStyle=4" parent="RHxia8tkyUF-FtN3ZOdX-14" vertex="1">
          <mxGeometry y="26" width="160" height="30" as="geometry" />
        </mxCell>
        <mxCell id="RHxia8tkyUF-FtN3ZOdX-16" value="insurancePolicyID" style="text;strokeColor=none;fillColor=none;spacingLeft=4;spacingRight=4;overflow=hidden;rotatable=0;points=[[0,0.5],[1,0.5]];portConstraint=eastwest;fontSize=12;" parent="RHxia8tkyUF-FtN3ZOdX-14" vertex="1">
          <mxGeometry y="56" width="160" height="34" as="geometry" />
        </mxCell>
        <mxCell id="RHxia8tkyUF-FtN3ZOdX-17" value="Total . . . . . . .Â " style="text;strokeColor=none;fillColor=none;spacingLeft=4;spacingRight=4;overflow=hidden;rotatable=0;points=[[0,0.5],[1,0.5]];portConstraint=eastwest;fontSize=12;" parent="RHxia8tkyUF-FtN3ZOdX-1" vertex="1">
          <mxGeometry x="383" y="254" width="80" height="30" as="geometry" />
        </mxCell>
        <mxCell id="RHxia8tkyUF-FtN3ZOdX-18" style="edgeStyle=orthogonalEdgeStyle;rounded=0;orthogonalLoop=1;jettySize=auto;html=1;exitX=0.5;exitY=1;exitDx=0;exitDy=0;entryX=0.5;entryY=0;entryDx=0;entryDy=0;startArrow=none;startFill=0;endArrow=none;endFill=0;" parent="RHxia8tkyUF-FtN3ZOdX-1" source="RHxia8tkyUF-FtN3ZOdX-19" target="RHxia8tkyUF-FtN3ZOdX-20" edge="1">
          <mxGeometry relative="1" as="geometry" />
        </mxCell>
        <mxCell id="RHxia8tkyUF-FtN3ZOdX-19" value="Offers" style="shape=rhombus;perimeter=rhombusPerimeter;whiteSpace=wrap;html=1;align=center;fillColor=#f5f5f5;strokeColor=#666666;fontColor=#333333;" parent="RHxia8tkyUF-FtN3ZOdX-1" vertex="1">
          <mxGeometry x="90" y="320" width="60" height="50" as="geometry" />
        </mxCell>
        <mxCell id="RHxia8tkyUF-FtN3ZOdX-20" value="Lodging" style="swimlane;fontStyle=1;childLayout=stackLayout;horizontal=1;startSize=26;horizontalStack=0;resizeParent=1;resizeParentMax=0;resizeLast=0;collapsible=1;marginBottom=0;align=center;fontSize=14;fillColor=#dae8fc;strokeColor=#6c8ebf;" parent="RHxia8tkyUF-FtN3ZOdX-1" vertex="1">
          <mxGeometry x="40" y="460" width="160" height="266" as="geometry" />
        </mxCell>
        <mxCell id="RHxia8tkyUF-FtN3ZOdX-21" value="ID" style="text;strokeColor=none;fillColor=none;spacingLeft=4;spacingRight=4;overflow=hidden;rotatable=0;points=[[0,0.5],[1,0.5]];portConstraint=eastwest;fontSize=12;fontStyle=4" parent="RHxia8tkyUF-FtN3ZOdX-20" vertex="1">
          <mxGeometry y="26" width="160" height="30" as="geometry" />
        </mxCell>
        <mxCell id="RHxia8tkyUF-FtN3ZOdX-22" value="type" style="text;strokeColor=none;fillColor=none;spacingLeft=4;spacingRight=4;overflow=hidden;rotatable=0;points=[[0,0.5],[1,0.5]];portConstraint=eastwest;fontSize=12;" parent="RHxia8tkyUF-FtN3ZOdX-20" vertex="1">
          <mxGeometry y="56" width="160" height="30" as="geometry" />
        </mxCell>
        <mxCell id="RHxia8tkyUF-FtN3ZOdX-23" value="maxOccupancy" style="text;strokeColor=none;fillColor=none;spacingLeft=4;spacingRight=4;overflow=hidden;rotatable=0;points=[[0,0.5],[1,0.5]];portConstraint=eastwest;fontSize=12;" parent="RHxia8tkyUF-FtN3ZOdX-20" vertex="1">
          <mxGeometry y="86" width="160" height="30" as="geometry" />
        </mxCell>
        <mxCell id="RHxia8tkyUF-FtN3ZOdX-24" value="numBedrooms" style="text;strokeColor=none;fillColor=none;spacingLeft=4;spacingRight=4;overflow=hidden;rotatable=0;points=[[0,0.5],[1,0.5]];portConstraint=eastwest;fontSize=12;" parent="RHxia8tkyUF-FtN3ZOdX-20" vertex="1">
          <mxGeometry y="116" width="160" height="30" as="geometry" />
        </mxCell>
        <mxCell id="RHxia8tkyUF-FtN3ZOdX-25" value="numBeds" style="text;strokeColor=none;fillColor=none;spacingLeft=4;spacingRight=4;overflow=hidden;rotatable=0;points=[[0,0.5],[1,0.5]];portConstraint=eastwest;fontSize=12;" parent="RHxia8tkyUF-FtN3ZOdX-20" vertex="1">
          <mxGeometry y="146" width="160" height="30" as="geometry" />
        </mxCell>
        <mxCell id="RHxia8tkyUF-FtN3ZOdX-26" value="numBathrooms" style="text;strokeColor=none;fillColor=none;spacingLeft=4;spacingRight=4;overflow=hidden;rotatable=0;points=[[0,0.5],[1,0.5]];portConstraint=eastwest;fontSize=12;" parent="RHxia8tkyUF-FtN3ZOdX-20" vertex="1">
          <mxGeometry y="176" width="160" height="30" as="geometry" />
        </mxCell>
        <mxCell id="RHxia8tkyUF-FtN3ZOdX-27" value="pricePerNight" style="text;strokeColor=none;fillColor=none;spacingLeft=4;spacingRight=4;overflow=hidden;rotatable=0;points=[[0,0.5],[1,0.5]];portConstraint=eastwest;fontSize=12;" parent="RHxia8tkyUF-FtN3ZOdX-20" vertex="1">
          <mxGeometry y="206" width="160" height="30" as="geometry" />
        </mxCell>
        <mxCell id="RHxia8tkyUF-FtN3ZOdX-28" value="{ address }" style="text;strokeColor=none;fillColor=none;spacingLeft=4;spacingRight=4;overflow=hidden;rotatable=0;points=[[0,0.5],[1,0.5]];portConstraint=eastwest;fontSize=12;" parent="RHxia8tkyUF-FtN3ZOdX-20" vertex="1">
          <mxGeometry y="236" width="160" height="30" as="geometry" />
        </mxCell>
        <mxCell id="RHxia8tkyUF-FtN3ZOdX-29" style="edgeStyle=orthogonalEdgeStyle;rounded=0;orthogonalLoop=1;jettySize=auto;html=1;entryX=0.51;entryY=0.972;entryDx=0;entryDy=0;startArrow=none;startFill=0;endArrow=block;endFill=1;entryPerimeter=0;exitX=1;exitY=0.5;exitDx=0;exitDy=0;" parent="RHxia8tkyUF-FtN3ZOdX-1" source="RHxia8tkyUF-FtN3ZOdX-32" target="RHxia8tkyUF-FtN3ZOdX-12" edge="1">
          <mxGeometry relative="1" as="geometry">
            <Array as="points">
              <mxPoint x="622" y="501" />
            </Array>
          </mxGeometry>
        </mxCell>
        <mxCell id="RHxia8tkyUF-FtN3ZOdX-30" style="edgeStyle=orthogonalEdgeStyle;rounded=0;orthogonalLoop=1;jettySize=auto;html=1;exitX=0;exitY=0.5;exitDx=0;exitDy=0;entryX=1;entryY=0.5;entryDx=0;entryDy=0;startArrow=none;startFill=0;endArrow=none;endFill=0;" parent="RHxia8tkyUF-FtN3ZOdX-1" source="RHxia8tkyUF-FtN3ZOdX-32" target="RHxia8tkyUF-FtN3ZOdX-21" edge="1">
          <mxGeometry relative="1" as="geometry">
            <Array as="points">
              <mxPoint x="340" y="501" />
            </Array>
          </mxGeometry>
        </mxCell>
        <mxCell id="RHxia8tkyUF-FtN3ZOdX-31" style="edgeStyle=orthogonalEdgeStyle;rounded=0;orthogonalLoop=1;jettySize=auto;html=1;exitX=0.5;exitY=1;exitDx=0;exitDy=0;startArrow=block;startFill=1;endArrow=none;endFill=0;entryX=0.5;entryY=0;entryDx=0;entryDy=0;" parent="RHxia8tkyUF-FtN3ZOdX-1" source="RHxia8tkyUF-FtN3ZOdX-32" target="RHxia8tkyUF-FtN3ZOdX-33" edge="1">
          <mxGeometry relative="1" as="geometry">
            <mxPoint x="460" y="560" as="targetPoint" />
          </mxGeometry>
        </mxCell>
        <mxCell id="RHxia8tkyUF-FtN3ZOdX-32" value="Books" style="shape=rhombus;perimeter=rhombusPerimeter;whiteSpace=wrap;html=1;align=center;fillColor=#f5f5f5;strokeColor=#666666;fontColor=#333333;" parent="RHxia8tkyUF-FtN3ZOdX-1" vertex="1">
          <mxGeometry x="430" y="477" width="60" height="48" as="geometry" />
        </mxCell>
        <mxCell id="RHxia8tkyUF-FtN3ZOdX-33" value="Booking" style="swimlane;fontStyle=1;childLayout=stackLayout;horizontal=1;startSize=26;horizontalStack=0;resizeParent=1;resizeParentMax=0;resizeLast=0;collapsible=1;marginBottom=0;align=center;fontSize=14;fillColor=#dae8fc;strokeColor=#6c8ebf;" parent="RHxia8tkyUF-FtN3ZOdX-1" vertex="1">
          <mxGeometry x="380" y="580" width="160" height="146" as="geometry" />
        </mxCell>
        <mxCell id="RHxia8tkyUF-FtN3ZOdX-34" value="checkInDate" style="text;strokeColor=none;fillColor=none;spacingLeft=4;spacingRight=4;overflow=hidden;rotatable=0;points=[[0,0.5],[1,0.5]];portConstraint=eastwest;fontSize=12;" parent="RHxia8tkyUF-FtN3ZOdX-33" vertex="1">
          <mxGeometry y="26" width="160" height="30" as="geometry" />
        </mxCell>
        <mxCell id="RHxia8tkyUF-FtN3ZOdX-35" value="checkOutDate" style="text;strokeColor=none;fillColor=none;spacingLeft=4;spacingRight=4;overflow=hidden;rotatable=0;points=[[0,0.5],[1,0.5]];portConstraint=eastwest;fontSize=12;" parent="RHxia8tkyUF-FtN3ZOdX-33" vertex="1">
          <mxGeometry y="56" width="160" height="30" as="geometry" />
        </mxCell>
        <mxCell id="RHxia8tkyUF-FtN3ZOdX-36" value="numGuests" style="text;strokeColor=none;fillColor=none;spacingLeft=4;spacingRight=4;overflow=hidden;rotatable=0;points=[[0,0.5],[1,0.5]];portConstraint=eastwest;fontSize=12;" parent="RHxia8tkyUF-FtN3ZOdX-33" vertex="1">
          <mxGeometry y="86" width="160" height="30" as="geometry" />
        </mxCell>
        <mxCell id="RHxia8tkyUF-FtN3ZOdX-37" value="bookingCost" style="text;strokeColor=none;fillColor=none;spacingLeft=4;spacingRight=4;overflow=hidden;rotatable=0;points=[[0,0.5],[1,0.5]];portConstraint=eastwest;fontSize=12;" parent="RHxia8tkyUF-FtN3ZOdX-33" vertex="1">
          <mxGeometry y="116" width="160" height="30" as="geometry" />
        </mxCell>
        <mxCell id="RHxia8tkyUF-FtN3ZOdX-38" style="edgeStyle=orthogonalEdgeStyle;rounded=0;orthogonalLoop=1;jettySize=auto;html=1;fontColor=#000000;startArrow=none;startFill=0;endArrow=none;endFill=0;exitX=0.5;exitY=0;exitDx=0;exitDy=0;" parent="RHxia8tkyUF-FtN3ZOdX-1" source="RHxia8tkyUF-FtN3ZOdX-70" target="RHxia8tkyUF-FtN3ZOdX-33" edge="1">
          <mxGeometry relative="1" as="geometry">
            <Array as="points">
              <mxPoint x="418" y="730" />
              <mxPoint x="418" y="730" />
            </Array>
          </mxGeometry>
        </mxCell>
        <mxCell id="RHxia8tkyUF-FtN3ZOdX-39" value="Cancellation" style="swimlane;fontStyle=1;childLayout=stackLayout;horizontal=1;startSize=26;horizontalStack=0;resizeParent=1;resizeParentMax=0;resizeLast=0;collapsible=1;marginBottom=0;align=center;fontSize=14;fillColor=#dae8fc;strokeColor=#6c8ebf;labelBackgroundColor=none;fontColor=#000000;" parent="RHxia8tkyUF-FtN3ZOdX-1" vertex="1">
          <mxGeometry x="290" y="840" width="160" height="150" as="geometry" />
        </mxCell>
        <mxCell id="RHxia8tkyUF-FtN3ZOdX-40" value="date" style="text;strokeColor=none;fillColor=none;spacingLeft=4;spacingRight=4;overflow=hidden;rotatable=0;points=[[0,0.5],[1,0.5]];portConstraint=eastwest;fontSize=12;" parent="RHxia8tkyUF-FtN3ZOdX-39" vertex="1">
          <mxGeometry y="26" width="160" height="30" as="geometry" />
        </mxCell>
        <mxCell id="RHxia8tkyUF-FtN3ZOdX-41" value="reason" style="text;strokeColor=none;fillColor=none;spacingLeft=4;spacingRight=4;overflow=hidden;rotatable=0;points=[[0,0.5],[1,0.5]];portConstraint=eastwest;fontSize=12;" parent="RHxia8tkyUF-FtN3ZOdX-39" vertex="1">
          <mxGeometry y="56" width="160" height="30" as="geometry" />
        </mxCell>
        <mxCell id="RHxia8tkyUF-FtN3ZOdX-42" value="refundAmount" style="text;strokeColor=none;fillColor=none;spacingLeft=4;spacingRight=4;overflow=hidden;rotatable=0;points=[[0,0.5],[1,0.5]];portConstraint=eastwest;fontSize=12;" parent="RHxia8tkyUF-FtN3ZOdX-39" vertex="1">
          <mxGeometry y="86" width="160" height="64" as="geometry" />
        </mxCell>
        <mxCell id="RHxia8tkyUF-FtN3ZOdX-43" style="edgeStyle=orthogonalEdgeStyle;rounded=0;orthogonalLoop=1;jettySize=auto;html=1;fontColor=#000000;startArrow=none;startFill=0;endArrow=block;endFill=1;exitX=0.5;exitY=0;exitDx=0;exitDy=0;" parent="RHxia8tkyUF-FtN3ZOdX-1" target="RHxia8tkyUF-FtN3ZOdX-33" edge="1">
          <mxGeometry relative="1" as="geometry">
            <mxPoint x="500" y="760" as="sourcePoint" />
            <Array as="points">
              <mxPoint x="500" y="750" />
              <mxPoint x="500" y="750" />
            </Array>
          </mxGeometry>
        </mxCell>
        <mxCell id="RHxia8tkyUF-FtN3ZOdX-44" value="Payment_Info" style="swimlane;fontStyle=1;childLayout=stackLayout;horizontal=1;startSize=26;horizontalStack=0;resizeParent=1;resizeParentMax=0;resizeLast=0;collapsible=1;marginBottom=0;align=center;fontSize=14;fillColor=#dae8fc;strokeColor=#6c8ebf;labelBackgroundColor=none;fontColor=#000000;" parent="RHxia8tkyUF-FtN3ZOdX-1" vertex="1">
          <mxGeometry x="470" y="840" width="160" height="150" as="geometry" />
        </mxCell>
        <mxCell id="RHxia8tkyUF-FtN3ZOdX-45" value="creditCardNum" style="text;strokeColor=none;fillColor=none;spacingLeft=4;spacingRight=4;overflow=hidden;rotatable=0;points=[[0,0.5],[1,0.5]];portConstraint=eastwest;fontSize=12;" parent="RHxia8tkyUF-FtN3ZOdX-44" vertex="1">
          <mxGeometry y="26" width="160" height="30" as="geometry" />
        </mxCell>
        <mxCell id="RHxia8tkyUF-FtN3ZOdX-46" value="expireDate" style="text;strokeColor=none;fillColor=none;spacingLeft=4;spacingRight=4;overflow=hidden;rotatable=0;points=[[0,0.5],[1,0.5]];portConstraint=eastwest;fontSize=12;" parent="RHxia8tkyUF-FtN3ZOdX-44" vertex="1">
          <mxGeometry y="56" width="160" height="30" as="geometry" />
        </mxCell>
        <mxCell id="RHxia8tkyUF-FtN3ZOdX-47" value="transactionAmt" style="text;strokeColor=none;fillColor=none;spacingLeft=4;spacingRight=4;overflow=hidden;rotatable=0;points=[[0,0.5],[1,0.5]];portConstraint=eastwest;fontSize=12;" parent="RHxia8tkyUF-FtN3ZOdX-44" vertex="1">
          <mxGeometry y="86" width="160" height="30" as="geometry" />
        </mxCell>
        <mxCell id="RHxia8tkyUF-FtN3ZOdX-48" value="timestamp" style="text;strokeColor=none;fillColor=none;spacingLeft=4;spacingRight=4;overflow=hidden;rotatable=0;points=[[0,0.5],[1,0.5]];portConstraint=eastwest;fontSize=12;" parent="RHxia8tkyUF-FtN3ZOdX-44" vertex="1">
          <mxGeometry y="116" width="160" height="34" as="geometry" />
        </mxCell>
        <mxCell id="RHxia8tkyUF-FtN3ZOdX-49" style="edgeStyle=orthogonalEdgeStyle;rounded=0;orthogonalLoop=1;jettySize=auto;html=1;fontColor=#000000;startArrow=none;startFill=0;endArrow=none;endFill=0;" parent="RHxia8tkyUF-FtN3ZOdX-1" source="RHxia8tkyUF-FtN3ZOdX-61" target="RHxia8tkyUF-FtN3ZOdX-20" edge="1">
          <mxGeometry relative="1" as="geometry">
            <Array as="points">
              <mxPoint x="82" y="750" />
              <mxPoint x="82" y="750" />
            </Array>
          </mxGeometry>
        </mxCell>
        <mxCell id="RHxia8tkyUF-FtN3ZOdX-50" value="Discount" style="swimlane;fontStyle=1;childLayout=stackLayout;horizontal=1;startSize=26;horizontalStack=0;resizeParent=1;resizeParentMax=0;resizeLast=0;collapsible=1;marginBottom=0;align=center;fontSize=14;fillColor=#dae8fc;strokeColor=#6c8ebf;labelBackgroundColor=none;fontColor=#000000;" parent="RHxia8tkyUF-FtN3ZOdX-1" vertex="1">
          <mxGeometry x="40" y="840" width="160" height="150" as="geometry" />
        </mxCell>
        <mxCell id="RHxia8tkyUF-FtN3ZOdX-51" value="minNumNightStays" style="text;strokeColor=none;fillColor=none;spacingLeft=4;spacingRight=4;overflow=hidden;rotatable=0;points=[[0,0.5],[1,0.5]];portConstraint=eastwest;fontSize=12;dashed=1;html=1;" parent="RHxia8tkyUF-FtN3ZOdX-50" vertex="1">
          <mxGeometry y="26" width="160" height="30" as="geometry" />
        </mxCell>
        <mxCell id="RHxia8tkyUF-FtN3ZOdX-52" value="maxNightsBeforeChkIn" style="text;strokeColor=none;fillColor=none;spacingLeft=4;spacingRight=4;overflow=hidden;rotatable=0;points=[[0,0.5],[1,0.5]];portConstraint=eastwest;fontSize=12;" parent="RHxia8tkyUF-FtN3ZOdX-50" vertex="1">
          <mxGeometry y="56" width="160" height="30" as="geometry" />
        </mxCell>
        <mxCell id="RHxia8tkyUF-FtN3ZOdX-53" value="percentage" style="text;strokeColor=none;fillColor=none;spacingLeft=4;spacingRight=4;overflow=hidden;rotatable=0;points=[[0,0.5],[1,0.5]];portConstraint=eastwest;fontSize=12;" parent="RHxia8tkyUF-FtN3ZOdX-50" vertex="1">
          <mxGeometry y="86" width="160" height="64" as="geometry" />
        </mxCell>
        <mxCell id="RHxia8tkyUF-FtN3ZOdX-54" style="edgeStyle=orthogonalEdgeStyle;rounded=0;orthogonalLoop=1;jettySize=auto;html=1;exitX=1;exitY=0.5;exitDx=0;exitDy=0;fontColor=#000000;startArrow=block;startFill=1;endArrow=block;endFill=1;" parent="RHxia8tkyUF-FtN3ZOdX-1" source="RHxia8tkyUF-FtN3ZOdX-55" target="RHxia8tkyUF-FtN3ZOdX-73" edge="1">
          <mxGeometry relative="1" as="geometry" />
        </mxCell>
        <mxCell id="RHxia8tkyUF-FtN3ZOdX-55" value="Referral" style="shape=rhombus;perimeter=rhombusPerimeter;whiteSpace=wrap;html=1;align=center;labelBackgroundColor=none;fontColor=#333333;fillColor=#f5f5f5;strokeColor=#666666;" parent="RHxia8tkyUF-FtN3ZOdX-1" vertex="1">
          <mxGeometry x="570" y="118.75" width="60" height="48.5" as="geometry" />
        </mxCell>
        <mxCell id="RHxia8tkyUF-FtN3ZOdX-56" style="edgeStyle=orthogonalEdgeStyle;rounded=0;orthogonalLoop=1;jettySize=auto;html=1;exitX=1;exitY=0.5;exitDx=0;exitDy=0;entryX=0.5;entryY=1;entryDx=0;entryDy=0;fontColor=#000000;startArrow=block;startFill=1;endArrow=none;endFill=0;" parent="RHxia8tkyUF-FtN3ZOdX-1" source="RHxia8tkyUF-FtN3ZOdX-9" target="RHxia8tkyUF-FtN3ZOdX-55" edge="1">
          <mxGeometry relative="1" as="geometry" />
        </mxCell>
        <mxCell id="RHxia8tkyUF-FtN3ZOdX-57" style="edgeStyle=orthogonalEdgeStyle;rounded=0;orthogonalLoop=1;jettySize=auto;html=1;exitX=1;exitY=0.5;exitDx=0;exitDy=0;fontColor=#000000;startArrow=block;startFill=1;endArrow=none;endFill=0;" parent="RHxia8tkyUF-FtN3ZOdX-1" source="RHxia8tkyUF-FtN3ZOdX-5" target="RHxia8tkyUF-FtN3ZOdX-55" edge="1">
          <mxGeometry relative="1" as="geometry">
            <mxPoint x="650" y="110" as="targetPoint" />
          </mxGeometry>
        </mxCell>
        <mxCell id="RHxia8tkyUF-FtN3ZOdX-58" value="" style="line;strokeWidth=1;rotatable=0;dashed=1;labelPosition=right;align=left;verticalAlign=middle;spacingTop=0;spacingLeft=6;points=[];portConstraint=eastwest;labelBackgroundColor=none;fontColor=#000000;fillColor=default;html=1;connectable=0;allowArrows=0;dropTarget=1;" parent="RHxia8tkyUF-FtN3ZOdX-1" vertex="1">
          <mxGeometry x="47" y="883" width="103" height="10" as="geometry" />
        </mxCell>
        <mxCell id="RHxia8tkyUF-FtN3ZOdX-59" value="" style="line;strokeWidth=1;rotatable=0;dashed=1;labelPosition=right;align=left;verticalAlign=middle;spacingTop=0;spacingLeft=6;points=[];portConstraint=eastwest;labelBackgroundColor=none;fontColor=#000000;fillColor=default;html=1;connectable=0;allowArrows=0;dropTarget=1;" parent="RHxia8tkyUF-FtN3ZOdX-1" vertex="1">
          <mxGeometry x="47" y="915" width="123" height="11" as="geometry" />
        </mxCell>
        <mxCell id="RHxia8tkyUF-FtN3ZOdX-60" value="" style="line;strokeWidth=1;rotatable=0;dashed=1;labelPosition=right;align=left;verticalAlign=middle;spacingTop=0;spacingLeft=6;points=[];portConstraint=eastwest;labelBackgroundColor=none;fontColor=#000000;fillColor=default;html=1;connectable=0;allowArrows=0;dropTarget=1;" parent="RHxia8tkyUF-FtN3ZOdX-1" vertex="1">
          <mxGeometry x="47" y="943" width="63" height="11" as="geometry" />
        </mxCell>
        <mxCell id="RHxia8tkyUF-FtN3ZOdX-61" value="Offered" style="shape=rhombus;double=1;perimeter=rhombusPerimeter;whiteSpace=wrap;html=1;align=center;labelBackgroundColor=none;fontColor=#333333;strokeColor=#666666;fillColor=#f5f5f5;" parent="RHxia8tkyUF-FtN3ZOdX-1" vertex="1">
          <mxGeometry x="53.5" y="760" width="56.5" height="50" as="geometry" />
        </mxCell>
        <mxCell id="RHxia8tkyUF-FtN3ZOdX-62" style="edgeStyle=orthogonalEdgeStyle;rounded=0;orthogonalLoop=1;jettySize=auto;html=1;fontColor=#000000;startArrow=block;startFill=1;endArrow=none;endFill=0;entryX=0.5;entryY=1;entryDx=0;entryDy=0;" parent="RHxia8tkyUF-FtN3ZOdX-1" source="RHxia8tkyUF-FtN3ZOdX-50" target="RHxia8tkyUF-FtN3ZOdX-61" edge="1">
          <mxGeometry relative="1" as="geometry">
            <mxPoint x="100" y="890" as="sourcePoint" />
            <mxPoint x="130" y="726" as="targetPoint" />
            <Array as="points">
              <mxPoint x="82" y="860" />
              <mxPoint x="82" y="860" />
            </Array>
          </mxGeometry>
        </mxCell>
        <mxCell id="RHxia8tkyUF-FtN3ZOdX-63" style="edgeStyle=orthogonalEdgeStyle;rounded=0;orthogonalLoop=1;jettySize=auto;html=1;fontColor=#000000;startArrow=none;startFill=0;endArrow=block;endFill=1;" parent="RHxia8tkyUF-FtN3ZOdX-1" source="RHxia8tkyUF-FtN3ZOdX-64" target="RHxia8tkyUF-FtN3ZOdX-20" edge="1">
          <mxGeometry relative="1" as="geometry">
            <mxPoint x="165" y="726" as="targetPoint" />
            <Array as="points">
              <mxPoint x="160" y="760" />
              <mxPoint x="160" y="760" />
            </Array>
          </mxGeometry>
        </mxCell>
        <mxCell id="RHxia8tkyUF-FtN3ZOdX-64" value="Offers" style="shape=rhombus;double=1;perimeter=rhombusPerimeter;whiteSpace=wrap;html=1;align=center;labelBackgroundColor=none;fontColor=#333333;strokeColor=#666666;fillColor=#f5f5f5;" parent="RHxia8tkyUF-FtN3ZOdX-1" vertex="1">
          <mxGeometry x="130" y="760" width="60" height="50" as="geometry" />
        </mxCell>
        <mxCell id="RHxia8tkyUF-FtN3ZOdX-65" style="edgeStyle=orthogonalEdgeStyle;rounded=0;orthogonalLoop=1;jettySize=auto;html=1;fontColor=#000000;startArrow=none;startFill=0;endArrow=none;endFill=0;entryX=0.5;entryY=1;entryDx=0;entryDy=0;" parent="RHxia8tkyUF-FtN3ZOdX-1" source="RHxia8tkyUF-FtN3ZOdX-50" target="RHxia8tkyUF-FtN3ZOdX-64" edge="1">
          <mxGeometry relative="1" as="geometry">
            <mxPoint x="165" y="850" as="sourcePoint" />
            <mxPoint x="200" y="726" as="targetPoint" />
            <Array as="points">
              <mxPoint x="160" y="810" />
            </Array>
          </mxGeometry>
        </mxCell>
        <mxCell id="RHxia8tkyUF-FtN3ZOdX-66" value="Offers" style="shape=rhombus;perimeter=rhombusPerimeter;whiteSpace=wrap;html=1;align=center;labelBackgroundColor=none;fontColor=#333333;fillColor=#f5f5f5;strokeColor=#666666;" parent="RHxia8tkyUF-FtN3ZOdX-1" vertex="1">
          <mxGeometry x="130" y="760" width="60" height="50" as="geometry" />
        </mxCell>
        <mxCell id="RHxia8tkyUF-FtN3ZOdX-67" value="" style="line;strokeWidth=1;rotatable=0;dashed=1;labelPosition=right;align=left;verticalAlign=middle;spacingTop=0;spacingLeft=6;points=[];portConstraint=eastwest;labelBackgroundColor=none;fontColor=#000000;fillColor=default;html=1;connectable=0;allowArrows=0;dropTarget=1;" parent="RHxia8tkyUF-FtN3ZOdX-1" vertex="1">
          <mxGeometry x="297" y="883" width="23" height="10" as="geometry" />
        </mxCell>
        <mxCell id="RHxia8tkyUF-FtN3ZOdX-68" value="" style="line;strokeWidth=1;rotatable=0;dashed=1;labelPosition=right;align=left;verticalAlign=middle;spacingTop=0;spacingLeft=6;points=[];portConstraint=eastwest;labelBackgroundColor=none;fontColor=#000000;fillColor=default;html=1;connectable=0;allowArrows=0;dropTarget=1;" parent="RHxia8tkyUF-FtN3ZOdX-1" vertex="1">
          <mxGeometry x="297" y="915" width="33" height="11" as="geometry" />
        </mxCell>
        <mxCell id="RHxia8tkyUF-FtN3ZOdX-69" value="" style="line;strokeWidth=1;rotatable=0;dashed=1;labelPosition=right;align=left;verticalAlign=middle;spacingTop=0;spacingLeft=6;points=[];portConstraint=eastwest;labelBackgroundColor=none;fontColor=#000000;fillColor=default;html=1;connectable=0;allowArrows=0;dropTarget=1;" parent="RHxia8tkyUF-FtN3ZOdX-1" vertex="1">
          <mxGeometry x="297" y="943" width="73" height="11" as="geometry" />
        </mxCell>
        <mxCell id="RHxia8tkyUF-FtN3ZOdX-70" value="cancelled" style="shape=rhombus;double=1;perimeter=rhombusPerimeter;whiteSpace=wrap;html=1;align=center;labelBackgroundColor=none;fontColor=#333333;strokeColor=#666666;fillColor=#f5f5f5;" parent="RHxia8tkyUF-FtN3ZOdX-1" vertex="1">
          <mxGeometry x="380" y="760" width="76.5" height="50" as="geometry" />
        </mxCell>
        <mxCell id="RHxia8tkyUF-FtN3ZOdX-71" style="edgeStyle=orthogonalEdgeStyle;rounded=0;orthogonalLoop=1;jettySize=auto;html=1;fontColor=#000000;startArrow=none;startFill=0;endArrow=none;endFill=0;entryX=0.5;entryY=1;entryDx=0;entryDy=0;shape=link;" parent="RHxia8tkyUF-FtN3ZOdX-1" source="RHxia8tkyUF-FtN3ZOdX-39" target="RHxia8tkyUF-FtN3ZOdX-70" edge="1">
          <mxGeometry relative="1" as="geometry">
            <mxPoint x="401.7500000000002" y="770" as="sourcePoint" />
            <mxPoint x="430" y="706" as="targetPoint" />
            <Array as="points">
              <mxPoint x="418" y="830" />
              <mxPoint x="418" y="830" />
            </Array>
          </mxGeometry>
        </mxCell>
        <mxCell id="RHxia8tkyUF-FtN3ZOdX-72" style="edgeStyle=orthogonalEdgeStyle;rounded=0;orthogonalLoop=1;jettySize=auto;html=1;fontColor=#000000;startArrow=block;startFill=1;endArrow=none;endFill=0;entryX=0.5;entryY=1;entryDx=0;entryDy=0;" parent="RHxia8tkyUF-FtN3ZOdX-1" source="RHxia8tkyUF-FtN3ZOdX-44" edge="1">
          <mxGeometry relative="1" as="geometry">
            <mxPoint x="610" y="770" as="sourcePoint" />
            <mxPoint x="500" y="810" as="targetPoint" />
            <Array as="points">
              <mxPoint x="500" y="780" />
              <mxPoint x="500" y="780" />
            </Array>
          </mxGeometry>
        </mxCell>
        <mxCell id="RHxia8tkyUF-FtN3ZOdX-73" value="Referral" style="swimlane;fontStyle=1;childLayout=stackLayout;horizontal=1;startSize=26;horizontalStack=0;resizeParent=1;resizeParentMax=0;resizeLast=0;collapsible=1;marginBottom=0;align=center;fontSize=14;fillColor=#dae8fc;strokeColor=#6c8ebf;labelBackgroundColor=none;fontColor=#000000;html=1;" parent="RHxia8tkyUF-FtN3ZOdX-1" vertex="1">
          <mxGeometry x="680" y="115" width="130" height="56" as="geometry" />
        </mxCell>
        <mxCell id="RHxia8tkyUF-FtN3ZOdX-74" value="creditAmount" style="text;strokeColor=none;fillColor=none;spacingLeft=4;spacingRight=4;overflow=hidden;rotatable=0;points=[[0,0.5],[1,0.5]];portConstraint=eastwest;fontSize=12;" parent="RHxia8tkyUF-FtN3ZOdX-73" vertex="1">
          <mxGeometry y="26" width="130" height="30" as="geometry" />
        </mxCell>
        <mxCell id="RHxia8tkyUF-FtN3ZOdX-75" value="Paid" style="shape=rhombus;perimeter=rhombusPerimeter;whiteSpace=wrap;html=1;align=center;labelBackgroundColor=none;fontColor=#333333;fillColor=#f5f5f5;strokeColor=#666666;" parent="RHxia8tkyUF-FtN3ZOdX-1" vertex="1">
          <mxGeometry x="470" y="760" width="60" height="50" as="geometry" />
        </mxCell>
        <mxCell id="RHxia8tkyUF-FtN3ZOdX-76" value="Review" style="swimlane;fontStyle=1;childLayout=stackLayout;horizontal=1;startSize=26;horizontalStack=0;resizeParent=1;resizeParentMax=0;resizeLast=0;collapsible=1;marginBottom=0;align=center;fontSize=14;fillColor=#d5e8d4;strokeColor=#82b366;" parent="RHxia8tkyUF-FtN3ZOdX-1" vertex="1">
          <mxGeometry x="640" y="580" width="160" height="116" as="geometry" />
        </mxCell>
        <mxCell id="RHxia8tkyUF-FtN3ZOdX-77" value="timestamp" style="text;strokeColor=none;fillColor=none;spacingLeft=4;spacingRight=4;overflow=hidden;rotatable=0;points=[[0,0.5],[1,0.5]];portConstraint=eastwest;fontSize=12;" parent="RHxia8tkyUF-FtN3ZOdX-76" vertex="1">
          <mxGeometry y="26" width="160" height="30" as="geometry" />
        </mxCell>
        <mxCell id="RHxia8tkyUF-FtN3ZOdX-78" value="numStars" style="text;strokeColor=none;fillColor=none;spacingLeft=4;spacingRight=4;overflow=hidden;rotatable=0;points=[[0,0.5],[1,0.5]];portConstraint=eastwest;fontSize=12;" parent="RHxia8tkyUF-FtN3ZOdX-76" vertex="1">
          <mxGeometry y="56" width="160" height="30" as="geometry" />
        </mxCell>
        <mxCell id="RHxia8tkyUF-FtN3ZOdX-79" value="comment" style="text;strokeColor=none;fillColor=none;spacingLeft=4;spacingRight=4;overflow=hidden;rotatable=0;points=[[0,0.5],[1,0.5]];portConstraint=eastwest;fontSize=12;" parent="RHxia8tkyUF-FtN3ZOdX-76" vertex="1">
          <mxGeometry y="86" width="160" height="30" as="geometry" />
        </mxCell>
        <mxCell id="RHxia8tkyUF-FtN3ZOdX-80" style="edgeStyle=orthogonalEdgeStyle;rounded=0;orthogonalLoop=1;jettySize=auto;html=1;exitX=0.5;exitY=1;exitDx=0;exitDy=0;endArrow=none;endFill=0;" parent="RHxia8tkyUF-FtN3ZOdX-1" source="RHxia8tkyUF-FtN3ZOdX-83" target="RHxia8tkyUF-FtN3ZOdX-20" edge="1">
          <mxGeometry relative="1" as="geometry">
            <Array as="points">
              <mxPoint x="730" y="470" />
            </Array>
          </mxGeometry>
        </mxCell>
        <mxCell id="RHxia8tkyUF-FtN3ZOdX-81" style="edgeStyle=orthogonalEdgeStyle;rounded=0;orthogonalLoop=1;jettySize=auto;html=1;exitX=0;exitY=0.5;exitDx=0;exitDy=0;endArrow=none;endFill=0;" parent="RHxia8tkyUF-FtN3ZOdX-1" source="RHxia8tkyUF-FtN3ZOdX-83" target="RHxia8tkyUF-FtN3ZOdX-11" edge="1">
          <mxGeometry relative="1" as="geometry">
            <Array as="points">
              <mxPoint x="760" y="420" />
              <mxPoint x="760" y="420" />
              <mxPoint x="760" y="375" />
            </Array>
          </mxGeometry>
        </mxCell>
        <mxCell id="RHxia8tkyUF-FtN3ZOdX-82" style="edgeStyle=orthogonalEdgeStyle;rounded=0;orthogonalLoop=1;jettySize=auto;html=1;exitX=1;exitY=0.5;exitDx=0;exitDy=0;entryX=0.75;entryY=0;entryDx=0;entryDy=0;endArrow=none;endFill=0;" parent="RHxia8tkyUF-FtN3ZOdX-1" source="RHxia8tkyUF-FtN3ZOdX-83" target="RHxia8tkyUF-FtN3ZOdX-76" edge="1">
          <mxGeometry relative="1" as="geometry" />
        </mxCell>
        <mxCell id="RHxia8tkyUF-FtN3ZOdX-83" value="Reviews" style="shape=rhombus;perimeter=rhombusPerimeter;whiteSpace=wrap;html=1;align=center;fillColor=#f5f5f5;strokeColor=#666666;fontColor=#333333;direction=south;" parent="RHxia8tkyUF-FtN3ZOdX-1" vertex="1">
          <mxGeometry x="730" y="450" width="60" height="40" as="geometry" />
        </mxCell>
      </root>
    </mxGraphModel>
  </diagram>
  <diagram id="t-WM9RqSIZz1GAv1RPVq" name="1.3">
    <mxGraphModel dx="1248" dy="625" grid="0" gridSize="10" guides="1" tooltips="1" connect="1" arrows="1" fold="1" page="1" pageScale="1" pageWidth="850" pageHeight="1100" math="0" shadow="0">
      <root>
        <mxCell id="HR_N4VvVfkNbBfFpeFms-0" />
        <mxCell id="HR_N4VvVfkNbBfFpeFms-1" parent="HR_N4VvVfkNbBfFpeFms-0" />
        <mxCell id="HR_N4VvVfkNbBfFpeFms-2" style="edgeStyle=orthogonalEdgeStyle;rounded=0;orthogonalLoop=1;jettySize=auto;html=1;startArrow=block;startFill=0;endArrow=none;endFill=0;" parent="HR_N4VvVfkNbBfFpeFms-1" source="HR_N4VvVfkNbBfFpeFms-4" target="HR_N4VvVfkNbBfFpeFms-11" edge="1">
          <mxGeometry relative="1" as="geometry" />
        </mxCell>
        <mxCell id="HR_N4VvVfkNbBfFpeFms-3" style="edgeStyle=orthogonalEdgeStyle;rounded=0;orthogonalLoop=1;jettySize=auto;html=1;startArrow=block;startFill=0;endArrow=none;endFill=0;" parent="HR_N4VvVfkNbBfFpeFms-1" source="HR_N4VvVfkNbBfFpeFms-4" target="HR_N4VvVfkNbBfFpeFms-15" edge="1">
          <mxGeometry relative="1" as="geometry" />
        </mxCell>
        <mxCell id="HR_N4VvVfkNbBfFpeFms-4" value="User" style="swimlane;fontStyle=1;childLayout=stackLayout;horizontal=1;startSize=26;horizontalStack=0;resizeParent=1;resizeParentMax=0;resizeLast=0;collapsible=1;marginBottom=0;align=center;fontSize=14;fillColor=#dae8fc;strokeColor=#6c8ebf;" parent="HR_N4VvVfkNbBfFpeFms-1" vertex="1">
          <mxGeometry x="380" y="40" width="160" height="206" as="geometry" />
        </mxCell>
        <mxCell id="HR_N4VvVfkNbBfFpeFms-5" value="emailAddress" style="text;strokeColor=none;fillColor=none;spacingLeft=4;spacingRight=4;overflow=hidden;rotatable=0;points=[[0,0.5],[1,0.5]];portConstraint=eastwest;fontSize=12;fontStyle=4" parent="HR_N4VvVfkNbBfFpeFms-4" vertex="1">
          <mxGeometry y="26" width="160" height="30" as="geometry" />
        </mxCell>
        <mxCell id="HR_N4VvVfkNbBfFpeFms-6" value="firstName" style="text;strokeColor=none;fillColor=none;spacingLeft=4;spacingRight=4;overflow=hidden;rotatable=0;points=[[0,0.5],[1,0.5]];portConstraint=eastwest;fontSize=12;" parent="HR_N4VvVfkNbBfFpeFms-4" vertex="1">
          <mxGeometry y="56" width="160" height="30" as="geometry" />
        </mxCell>
        <mxCell id="HR_N4VvVfkNbBfFpeFms-7" value="lastName" style="text;strokeColor=none;fillColor=none;spacingLeft=4;spacingRight=4;overflow=hidden;rotatable=0;points=[[0,0.5],[1,0.5]];portConstraint=eastwest;fontSize=12;" parent="HR_N4VvVfkNbBfFpeFms-4" vertex="1">
          <mxGeometry y="86" width="160" height="30" as="geometry" />
        </mxCell>
        <mxCell id="HR_N4VvVfkNbBfFpeFms-8" value="dateOfBirth" style="text;strokeColor=none;fillColor=none;spacingLeft=4;spacingRight=4;overflow=hidden;rotatable=0;points=[[0,0.5],[1,0.5]];portConstraint=eastwest;fontSize=12;" parent="HR_N4VvVfkNbBfFpeFms-4" vertex="1">
          <mxGeometry y="116" width="160" height="30" as="geometry" />
        </mxCell>
        <mxCell id="HR_N4VvVfkNbBfFpeFms-9" value="age()" style="text;strokeColor=none;fillColor=none;spacingLeft=4;spacingRight=4;overflow=hidden;rotatable=0;points=[[0,0.5],[1,0.5]];portConstraint=eastwest;fontSize=12;" parent="HR_N4VvVfkNbBfFpeFms-4" vertex="1">
          <mxGeometry y="146" width="160" height="30" as="geometry" />
        </mxCell>
        <mxCell id="HR_N4VvVfkNbBfFpeFms-10" value="{ phoneNumber }" style="text;strokeColor=none;fillColor=none;spacingLeft=4;spacingRight=4;overflow=hidden;rotatable=0;points=[[0,0.5],[1,0.5]];portConstraint=eastwest;fontSize=12;" parent="HR_N4VvVfkNbBfFpeFms-4" vertex="1">
          <mxGeometry y="176" width="160" height="30" as="geometry" />
        </mxCell>
        <mxCell id="HR_N4VvVfkNbBfFpeFms-11" value="Guest" style="swimlane;fontStyle=1;childLayout=stackLayout;horizontal=1;startSize=26;horizontalStack=0;resizeParent=1;resizeParentMax=0;resizeLast=0;collapsible=1;marginBottom=0;align=center;fontSize=14;fillColor=#dae8fc;strokeColor=#6c8ebf;" parent="HR_N4VvVfkNbBfFpeFms-1" vertex="1">
          <mxGeometry x="540" y="330" width="160" height="90" as="geometry" />
        </mxCell>
        <mxCell id="HR_N4VvVfkNbBfFpeFms-12" value="emailAddress" style="text;strokeColor=none;fillColor=none;spacingLeft=4;spacingRight=4;overflow=hidden;rotatable=0;points=[[0,0.5],[1,0.5]];portConstraint=eastwest;fontSize=12;labelBackgroundColor=none;fontColor=default;fontStyle=4" parent="HR_N4VvVfkNbBfFpeFms-11" vertex="1">
          <mxGeometry y="26" width="160" height="64" as="geometry" />
        </mxCell>
        <mxCell id="HR_N4VvVfkNbBfFpeFms-13" style="edgeStyle=orthogonalEdgeStyle;rounded=0;orthogonalLoop=1;jettySize=auto;html=1;entryX=1;entryY=0.5;entryDx=0;entryDy=0;startArrow=block;startFill=1;endArrow=none;endFill=0;exitX=0.002;exitY=0.169;exitDx=0;exitDy=0;exitPerimeter=0;" parent="HR_N4VvVfkNbBfFpeFms-1" source="HR_N4VvVfkNbBfFpeFms-15" target="HR_N4VvVfkNbBfFpeFms-20" edge="1">
          <mxGeometry relative="1" as="geometry">
            <mxPoint x="210" y="345" as="sourcePoint" />
            <Array as="points">
              <mxPoint x="200" y="345" />
            </Array>
          </mxGeometry>
        </mxCell>
        <mxCell id="HR_N4VvVfkNbBfFpeFms-14" style="edgeStyle=orthogonalEdgeStyle;rounded=0;orthogonalLoop=1;jettySize=auto;html=1;startArrow=block;startFill=1;endArrow=none;endFill=0;" parent="HR_N4VvVfkNbBfFpeFms-1" source="HR_N4VvVfkNbBfFpeFms-15" target="HR_N4VvVfkNbBfFpeFms-86" edge="1">
          <mxGeometry relative="1" as="geometry">
            <mxPoint x="300" y="540" as="targetPoint" />
            <Array as="points">
              <mxPoint x="290" y="470" />
              <mxPoint x="290" y="470" />
            </Array>
          </mxGeometry>
        </mxCell>
        <mxCell id="HR_N4VvVfkNbBfFpeFms-15" value="Host" style="swimlane;fontStyle=1;childLayout=stackLayout;horizontal=1;startSize=26;horizontalStack=0;resizeParent=1;resizeParentMax=0;resizeLast=0;collapsible=1;marginBottom=0;align=center;fontSize=14;fillColor=#dae8fc;strokeColor=#6c8ebf;" parent="HR_N4VvVfkNbBfFpeFms-1" vertex="1">
          <mxGeometry x="220" y="330" width="160" height="90" as="geometry" />
        </mxCell>
        <mxCell id="HR_N4VvVfkNbBfFpeFms-16" value="SSN" style="text;strokeColor=none;fillColor=none;spacingLeft=4;spacingRight=4;overflow=hidden;rotatable=0;points=[[0,0.5],[1,0.5]];portConstraint=eastwest;fontSize=12;fontStyle=4" parent="HR_N4VvVfkNbBfFpeFms-15" vertex="1">
          <mxGeometry y="26" width="160" height="30" as="geometry" />
        </mxCell>
        <mxCell id="HR_N4VvVfkNbBfFpeFms-17" value="insurancePolicyID" style="text;strokeColor=none;fillColor=none;spacingLeft=4;spacingRight=4;overflow=hidden;rotatable=0;points=[[0,0.5],[1,0.5]];portConstraint=eastwest;fontSize=12;" parent="HR_N4VvVfkNbBfFpeFms-15" vertex="1">
          <mxGeometry y="56" width="160" height="34" as="geometry" />
        </mxCell>
        <mxCell id="HR_N4VvVfkNbBfFpeFms-18" value="Total . . . . . . .Â " style="text;strokeColor=none;fillColor=none;spacingLeft=4;spacingRight=4;overflow=hidden;rotatable=0;points=[[0,0.5],[1,0.5]];portConstraint=eastwest;fontSize=12;" parent="HR_N4VvVfkNbBfFpeFms-1" vertex="1">
          <mxGeometry x="383" y="254" width="80" height="30" as="geometry" />
        </mxCell>
        <mxCell id="HR_N4VvVfkNbBfFpeFms-19" style="edgeStyle=orthogonalEdgeStyle;rounded=0;orthogonalLoop=1;jettySize=auto;html=1;exitX=0.5;exitY=1;exitDx=0;exitDy=0;entryX=0.5;entryY=0;entryDx=0;entryDy=0;startArrow=none;startFill=0;endArrow=none;endFill=0;" parent="HR_N4VvVfkNbBfFpeFms-1" source="HR_N4VvVfkNbBfFpeFms-20" target="HR_N4VvVfkNbBfFpeFms-21" edge="1">
          <mxGeometry relative="1" as="geometry" />
        </mxCell>
        <mxCell id="HR_N4VvVfkNbBfFpeFms-20" value="Offers" style="shape=rhombus;perimeter=rhombusPerimeter;whiteSpace=wrap;html=1;align=center;fillColor=#f5f5f5;strokeColor=#666666;fontColor=#333333;" parent="HR_N4VvVfkNbBfFpeFms-1" vertex="1">
          <mxGeometry x="90" y="320" width="60" height="50" as="geometry" />
        </mxCell>
        <mxCell id="HR_N4VvVfkNbBfFpeFms-21" value="Lodging" style="swimlane;fontStyle=1;childLayout=stackLayout;horizontal=1;startSize=26;horizontalStack=0;resizeParent=1;resizeParentMax=0;resizeLast=0;collapsible=1;marginBottom=0;align=center;fontSize=14;fillColor=#dae8fc;strokeColor=#6c8ebf;" parent="HR_N4VvVfkNbBfFpeFms-1" vertex="1">
          <mxGeometry x="40" y="460" width="160" height="266" as="geometry" />
        </mxCell>
        <mxCell id="HR_N4VvVfkNbBfFpeFms-22" value="ID" style="text;strokeColor=none;fillColor=none;spacingLeft=4;spacingRight=4;overflow=hidden;rotatable=0;points=[[0,0.5],[1,0.5]];portConstraint=eastwest;fontSize=12;fontStyle=4" parent="HR_N4VvVfkNbBfFpeFms-21" vertex="1">
          <mxGeometry y="26" width="160" height="30" as="geometry" />
        </mxCell>
        <mxCell id="HR_N4VvVfkNbBfFpeFms-23" value="type" style="text;strokeColor=none;fillColor=none;spacingLeft=4;spacingRight=4;overflow=hidden;rotatable=0;points=[[0,0.5],[1,0.5]];portConstraint=eastwest;fontSize=12;" parent="HR_N4VvVfkNbBfFpeFms-21" vertex="1">
          <mxGeometry y="56" width="160" height="30" as="geometry" />
        </mxCell>
        <mxCell id="HR_N4VvVfkNbBfFpeFms-24" value="maxOccupancy" style="text;strokeColor=none;fillColor=none;spacingLeft=4;spacingRight=4;overflow=hidden;rotatable=0;points=[[0,0.5],[1,0.5]];portConstraint=eastwest;fontSize=12;" parent="HR_N4VvVfkNbBfFpeFms-21" vertex="1">
          <mxGeometry y="86" width="160" height="30" as="geometry" />
        </mxCell>
        <mxCell id="HR_N4VvVfkNbBfFpeFms-25" value="numBedrooms" style="text;strokeColor=none;fillColor=none;spacingLeft=4;spacingRight=4;overflow=hidden;rotatable=0;points=[[0,0.5],[1,0.5]];portConstraint=eastwest;fontSize=12;" parent="HR_N4VvVfkNbBfFpeFms-21" vertex="1">
          <mxGeometry y="116" width="160" height="30" as="geometry" />
        </mxCell>
        <mxCell id="HR_N4VvVfkNbBfFpeFms-26" value="numBeds" style="text;strokeColor=none;fillColor=none;spacingLeft=4;spacingRight=4;overflow=hidden;rotatable=0;points=[[0,0.5],[1,0.5]];portConstraint=eastwest;fontSize=12;" parent="HR_N4VvVfkNbBfFpeFms-21" vertex="1">
          <mxGeometry y="146" width="160" height="30" as="geometry" />
        </mxCell>
        <mxCell id="HR_N4VvVfkNbBfFpeFms-27" value="numBathrooms" style="text;strokeColor=none;fillColor=none;spacingLeft=4;spacingRight=4;overflow=hidden;rotatable=0;points=[[0,0.5],[1,0.5]];portConstraint=eastwest;fontSize=12;" parent="HR_N4VvVfkNbBfFpeFms-21" vertex="1">
          <mxGeometry y="176" width="160" height="30" as="geometry" />
        </mxCell>
        <mxCell id="HR_N4VvVfkNbBfFpeFms-28" value="pricePerNight" style="text;strokeColor=none;fillColor=none;spacingLeft=4;spacingRight=4;overflow=hidden;rotatable=0;points=[[0,0.5],[1,0.5]];portConstraint=eastwest;fontSize=12;" parent="HR_N4VvVfkNbBfFpeFms-21" vertex="1">
          <mxGeometry y="206" width="160" height="30" as="geometry" />
        </mxCell>
        <mxCell id="HR_N4VvVfkNbBfFpeFms-29" value="{ address }" style="text;strokeColor=none;fillColor=none;spacingLeft=4;spacingRight=4;overflow=hidden;rotatable=0;points=[[0,0.5],[1,0.5]];portConstraint=eastwest;fontSize=12;" parent="HR_N4VvVfkNbBfFpeFms-21" vertex="1">
          <mxGeometry y="236" width="160" height="30" as="geometry" />
        </mxCell>
        <mxCell id="HR_N4VvVfkNbBfFpeFms-30" style="edgeStyle=orthogonalEdgeStyle;rounded=0;orthogonalLoop=1;jettySize=auto;html=1;entryX=0.51;entryY=0.972;entryDx=0;entryDy=0;startArrow=none;startFill=0;endArrow=block;endFill=1;entryPerimeter=0;exitX=1;exitY=0.5;exitDx=0;exitDy=0;" parent="HR_N4VvVfkNbBfFpeFms-1" source="HR_N4VvVfkNbBfFpeFms-33" target="HR_N4VvVfkNbBfFpeFms-12" edge="1">
          <mxGeometry relative="1" as="geometry">
            <Array as="points">
              <mxPoint x="622" y="501" />
            </Array>
          </mxGeometry>
        </mxCell>
        <mxCell id="HR_N4VvVfkNbBfFpeFms-31" style="edgeStyle=orthogonalEdgeStyle;rounded=0;orthogonalLoop=1;jettySize=auto;html=1;exitX=0;exitY=0.5;exitDx=0;exitDy=0;entryX=1;entryY=0.5;entryDx=0;entryDy=0;startArrow=none;startFill=0;endArrow=none;endFill=0;" parent="HR_N4VvVfkNbBfFpeFms-1" source="HR_N4VvVfkNbBfFpeFms-33" target="HR_N4VvVfkNbBfFpeFms-22" edge="1">
          <mxGeometry relative="1" as="geometry">
            <Array as="points">
              <mxPoint x="340" y="501" />
            </Array>
          </mxGeometry>
        </mxCell>
        <mxCell id="HR_N4VvVfkNbBfFpeFms-32" style="edgeStyle=orthogonalEdgeStyle;rounded=0;orthogonalLoop=1;jettySize=auto;html=1;exitX=0.5;exitY=1;exitDx=0;exitDy=0;startArrow=block;startFill=1;endArrow=none;endFill=0;entryX=0.5;entryY=0;entryDx=0;entryDy=0;" parent="HR_N4VvVfkNbBfFpeFms-1" source="HR_N4VvVfkNbBfFpeFms-33" target="HR_N4VvVfkNbBfFpeFms-34" edge="1">
          <mxGeometry relative="1" as="geometry">
            <mxPoint x="460" y="560" as="targetPoint" />
          </mxGeometry>
        </mxCell>
        <mxCell id="HR_N4VvVfkNbBfFpeFms-33" value="Books" style="shape=rhombus;perimeter=rhombusPerimeter;whiteSpace=wrap;html=1;align=center;fillColor=#f5f5f5;strokeColor=#666666;fontColor=#333333;" parent="HR_N4VvVfkNbBfFpeFms-1" vertex="1">
          <mxGeometry x="430" y="477" width="60" height="48" as="geometry" />
        </mxCell>
        <mxCell id="HR_N4VvVfkNbBfFpeFms-34" value="Booking" style="swimlane;fontStyle=1;childLayout=stackLayout;horizontal=1;startSize=26;horizontalStack=0;resizeParent=1;resizeParentMax=0;resizeLast=0;collapsible=1;marginBottom=0;align=center;fontSize=14;fillColor=#dae8fc;strokeColor=#6c8ebf;" parent="HR_N4VvVfkNbBfFpeFms-1" vertex="1">
          <mxGeometry x="380" y="580" width="160" height="146" as="geometry" />
        </mxCell>
        <mxCell id="HR_N4VvVfkNbBfFpeFms-35" value="checkInDate" style="text;strokeColor=none;fillColor=none;spacingLeft=4;spacingRight=4;overflow=hidden;rotatable=0;points=[[0,0.5],[1,0.5]];portConstraint=eastwest;fontSize=12;" parent="HR_N4VvVfkNbBfFpeFms-34" vertex="1">
          <mxGeometry y="26" width="160" height="30" as="geometry" />
        </mxCell>
        <mxCell id="HR_N4VvVfkNbBfFpeFms-36" value="checkOutDate" style="text;strokeColor=none;fillColor=none;spacingLeft=4;spacingRight=4;overflow=hidden;rotatable=0;points=[[0,0.5],[1,0.5]];portConstraint=eastwest;fontSize=12;" parent="HR_N4VvVfkNbBfFpeFms-34" vertex="1">
          <mxGeometry y="56" width="160" height="30" as="geometry" />
        </mxCell>
        <mxCell id="HR_N4VvVfkNbBfFpeFms-37" value="numGuests" style="text;strokeColor=none;fillColor=none;spacingLeft=4;spacingRight=4;overflow=hidden;rotatable=0;points=[[0,0.5],[1,0.5]];portConstraint=eastwest;fontSize=12;" parent="HR_N4VvVfkNbBfFpeFms-34" vertex="1">
          <mxGeometry y="86" width="160" height="30" as="geometry" />
        </mxCell>
        <mxCell id="HR_N4VvVfkNbBfFpeFms-38" value="bookingCost" style="text;strokeColor=none;fillColor=none;spacingLeft=4;spacingRight=4;overflow=hidden;rotatable=0;points=[[0,0.5],[1,0.5]];portConstraint=eastwest;fontSize=12;" parent="HR_N4VvVfkNbBfFpeFms-34" vertex="1">
          <mxGeometry y="116" width="160" height="30" as="geometry" />
        </mxCell>
        <mxCell id="HR_N4VvVfkNbBfFpeFms-39" style="edgeStyle=orthogonalEdgeStyle;rounded=0;orthogonalLoop=1;jettySize=auto;html=1;fontColor=#000000;startArrow=none;startFill=0;endArrow=none;endFill=0;exitX=0.5;exitY=0;exitDx=0;exitDy=0;" parent="HR_N4VvVfkNbBfFpeFms-1" source="HR_N4VvVfkNbBfFpeFms-71" target="HR_N4VvVfkNbBfFpeFms-34" edge="1">
          <mxGeometry relative="1" as="geometry">
            <Array as="points">
              <mxPoint x="418" y="730" />
              <mxPoint x="418" y="730" />
            </Array>
          </mxGeometry>
        </mxCell>
        <mxCell id="HR_N4VvVfkNbBfFpeFms-40" value="Cancellation" style="swimlane;fontStyle=1;childLayout=stackLayout;horizontal=1;startSize=26;horizontalStack=0;resizeParent=1;resizeParentMax=0;resizeLast=0;collapsible=1;marginBottom=0;align=center;fontSize=14;fillColor=#dae8fc;strokeColor=#6c8ebf;labelBackgroundColor=none;fontColor=#000000;" parent="HR_N4VvVfkNbBfFpeFms-1" vertex="1">
          <mxGeometry x="290" y="840" width="160" height="150" as="geometry" />
        </mxCell>
        <mxCell id="HR_N4VvVfkNbBfFpeFms-41" value="date" style="text;strokeColor=none;fillColor=none;spacingLeft=4;spacingRight=4;overflow=hidden;rotatable=0;points=[[0,0.5],[1,0.5]];portConstraint=eastwest;fontSize=12;" parent="HR_N4VvVfkNbBfFpeFms-40" vertex="1">
          <mxGeometry y="26" width="160" height="30" as="geometry" />
        </mxCell>
        <mxCell id="HR_N4VvVfkNbBfFpeFms-42" value="reason" style="text;strokeColor=none;fillColor=none;spacingLeft=4;spacingRight=4;overflow=hidden;rotatable=0;points=[[0,0.5],[1,0.5]];portConstraint=eastwest;fontSize=12;" parent="HR_N4VvVfkNbBfFpeFms-40" vertex="1">
          <mxGeometry y="56" width="160" height="30" as="geometry" />
        </mxCell>
        <mxCell id="HR_N4VvVfkNbBfFpeFms-43" value="refundAmount" style="text;strokeColor=none;fillColor=none;spacingLeft=4;spacingRight=4;overflow=hidden;rotatable=0;points=[[0,0.5],[1,0.5]];portConstraint=eastwest;fontSize=12;" parent="HR_N4VvVfkNbBfFpeFms-40" vertex="1">
          <mxGeometry y="86" width="160" height="64" as="geometry" />
        </mxCell>
        <mxCell id="HR_N4VvVfkNbBfFpeFms-44" style="edgeStyle=orthogonalEdgeStyle;rounded=0;orthogonalLoop=1;jettySize=auto;html=1;fontColor=#000000;startArrow=none;startFill=0;endArrow=block;endFill=1;exitX=0.5;exitY=0;exitDx=0;exitDy=0;" parent="HR_N4VvVfkNbBfFpeFms-1" target="HR_N4VvVfkNbBfFpeFms-34" edge="1">
          <mxGeometry relative="1" as="geometry">
            <mxPoint x="500" y="760" as="sourcePoint" />
            <Array as="points">
              <mxPoint x="500" y="750" />
              <mxPoint x="500" y="750" />
            </Array>
          </mxGeometry>
        </mxCell>
        <mxCell id="HR_N4VvVfkNbBfFpeFms-45" value="Payment_Info" style="swimlane;fontStyle=1;childLayout=stackLayout;horizontal=1;startSize=26;horizontalStack=0;resizeParent=1;resizeParentMax=0;resizeLast=0;collapsible=1;marginBottom=0;align=center;fontSize=14;fillColor=#dae8fc;strokeColor=#6c8ebf;labelBackgroundColor=none;fontColor=#000000;" parent="HR_N4VvVfkNbBfFpeFms-1" vertex="1">
          <mxGeometry x="470" y="840" width="160" height="150" as="geometry" />
        </mxCell>
        <mxCell id="HR_N4VvVfkNbBfFpeFms-46" value="creditCardNum" style="text;strokeColor=none;fillColor=none;spacingLeft=4;spacingRight=4;overflow=hidden;rotatable=0;points=[[0,0.5],[1,0.5]];portConstraint=eastwest;fontSize=12;" parent="HR_N4VvVfkNbBfFpeFms-45" vertex="1">
          <mxGeometry y="26" width="160" height="30" as="geometry" />
        </mxCell>
        <mxCell id="HR_N4VvVfkNbBfFpeFms-47" value="expireDate" style="text;strokeColor=none;fillColor=none;spacingLeft=4;spacingRight=4;overflow=hidden;rotatable=0;points=[[0,0.5],[1,0.5]];portConstraint=eastwest;fontSize=12;" parent="HR_N4VvVfkNbBfFpeFms-45" vertex="1">
          <mxGeometry y="56" width="160" height="30" as="geometry" />
        </mxCell>
        <mxCell id="HR_N4VvVfkNbBfFpeFms-48" value="transactionAmt" style="text;strokeColor=none;fillColor=none;spacingLeft=4;spacingRight=4;overflow=hidden;rotatable=0;points=[[0,0.5],[1,0.5]];portConstraint=eastwest;fontSize=12;" parent="HR_N4VvVfkNbBfFpeFms-45" vertex="1">
          <mxGeometry y="86" width="160" height="30" as="geometry" />
        </mxCell>
        <mxCell id="HR_N4VvVfkNbBfFpeFms-49" value="timestamp" style="text;strokeColor=none;fillColor=none;spacingLeft=4;spacingRight=4;overflow=hidden;rotatable=0;points=[[0,0.5],[1,0.5]];portConstraint=eastwest;fontSize=12;" parent="HR_N4VvVfkNbBfFpeFms-45" vertex="1">
          <mxGeometry y="116" width="160" height="34" as="geometry" />
        </mxCell>
        <mxCell id="HR_N4VvVfkNbBfFpeFms-50" style="edgeStyle=orthogonalEdgeStyle;rounded=0;orthogonalLoop=1;jettySize=auto;html=1;fontColor=#000000;startArrow=none;startFill=0;endArrow=none;endFill=0;" parent="HR_N4VvVfkNbBfFpeFms-1" source="HR_N4VvVfkNbBfFpeFms-62" target="HR_N4VvVfkNbBfFpeFms-21" edge="1">
          <mxGeometry relative="1" as="geometry">
            <Array as="points">
              <mxPoint x="82" y="750" />
              <mxPoint x="82" y="750" />
            </Array>
          </mxGeometry>
        </mxCell>
        <mxCell id="HR_N4VvVfkNbBfFpeFms-51" value="Discount" style="swimlane;fontStyle=1;childLayout=stackLayout;horizontal=1;startSize=26;horizontalStack=0;resizeParent=1;resizeParentMax=0;resizeLast=0;collapsible=1;marginBottom=0;align=center;fontSize=14;fillColor=#dae8fc;strokeColor=#6c8ebf;labelBackgroundColor=none;fontColor=#000000;" parent="HR_N4VvVfkNbBfFpeFms-1" vertex="1">
          <mxGeometry x="40" y="840" width="160" height="150" as="geometry" />
        </mxCell>
        <mxCell id="HR_N4VvVfkNbBfFpeFms-52" value="minNumNightStays" style="text;strokeColor=none;fillColor=none;spacingLeft=4;spacingRight=4;overflow=hidden;rotatable=0;points=[[0,0.5],[1,0.5]];portConstraint=eastwest;fontSize=12;dashed=1;html=1;" parent="HR_N4VvVfkNbBfFpeFms-51" vertex="1">
          <mxGeometry y="26" width="160" height="30" as="geometry" />
        </mxCell>
        <mxCell id="HR_N4VvVfkNbBfFpeFms-53" value="maxNightsBeforeChkIn" style="text;strokeColor=none;fillColor=none;spacingLeft=4;spacingRight=4;overflow=hidden;rotatable=0;points=[[0,0.5],[1,0.5]];portConstraint=eastwest;fontSize=12;" parent="HR_N4VvVfkNbBfFpeFms-51" vertex="1">
          <mxGeometry y="56" width="160" height="30" as="geometry" />
        </mxCell>
        <mxCell id="HR_N4VvVfkNbBfFpeFms-54" value="percentage" style="text;strokeColor=none;fillColor=none;spacingLeft=4;spacingRight=4;overflow=hidden;rotatable=0;points=[[0,0.5],[1,0.5]];portConstraint=eastwest;fontSize=12;" parent="HR_N4VvVfkNbBfFpeFms-51" vertex="1">
          <mxGeometry y="86" width="160" height="64" as="geometry" />
        </mxCell>
        <mxCell id="HR_N4VvVfkNbBfFpeFms-55" style="edgeStyle=orthogonalEdgeStyle;rounded=0;orthogonalLoop=1;jettySize=auto;html=1;exitX=1;exitY=0.5;exitDx=0;exitDy=0;fontColor=#000000;startArrow=block;startFill=1;endArrow=block;endFill=1;" parent="HR_N4VvVfkNbBfFpeFms-1" source="HR_N4VvVfkNbBfFpeFms-56" target="HR_N4VvVfkNbBfFpeFms-74" edge="1">
          <mxGeometry relative="1" as="geometry" />
        </mxCell>
        <mxCell id="HR_N4VvVfkNbBfFpeFms-56" value="Referral" style="shape=rhombus;perimeter=rhombusPerimeter;whiteSpace=wrap;html=1;align=center;labelBackgroundColor=none;fontColor=#333333;fillColor=#f5f5f5;strokeColor=#666666;" parent="HR_N4VvVfkNbBfFpeFms-1" vertex="1">
          <mxGeometry x="570" y="118.75" width="60" height="48.5" as="geometry" />
        </mxCell>
        <mxCell id="HR_N4VvVfkNbBfFpeFms-57" style="edgeStyle=orthogonalEdgeStyle;rounded=0;orthogonalLoop=1;jettySize=auto;html=1;exitX=1;exitY=0.5;exitDx=0;exitDy=0;entryX=0.5;entryY=1;entryDx=0;entryDy=0;fontColor=#000000;startArrow=block;startFill=1;endArrow=none;endFill=0;" parent="HR_N4VvVfkNbBfFpeFms-1" source="HR_N4VvVfkNbBfFpeFms-9" target="HR_N4VvVfkNbBfFpeFms-56" edge="1">
          <mxGeometry relative="1" as="geometry" />
        </mxCell>
        <mxCell id="HR_N4VvVfkNbBfFpeFms-58" style="edgeStyle=orthogonalEdgeStyle;rounded=0;orthogonalLoop=1;jettySize=auto;html=1;exitX=1;exitY=0.5;exitDx=0;exitDy=0;fontColor=#000000;startArrow=block;startFill=1;endArrow=none;endFill=0;" parent="HR_N4VvVfkNbBfFpeFms-1" source="HR_N4VvVfkNbBfFpeFms-5" target="HR_N4VvVfkNbBfFpeFms-56" edge="1">
          <mxGeometry relative="1" as="geometry">
            <mxPoint x="650" y="110" as="targetPoint" />
          </mxGeometry>
        </mxCell>
        <mxCell id="HR_N4VvVfkNbBfFpeFms-59" value="" style="line;strokeWidth=1;rotatable=0;dashed=1;labelPosition=right;align=left;verticalAlign=middle;spacingTop=0;spacingLeft=6;points=[];portConstraint=eastwest;labelBackgroundColor=none;fontColor=#000000;fillColor=default;html=1;connectable=0;allowArrows=0;dropTarget=1;" parent="HR_N4VvVfkNbBfFpeFms-1" vertex="1">
          <mxGeometry x="47" y="883" width="103" height="10" as="geometry" />
        </mxCell>
        <mxCell id="HR_N4VvVfkNbBfFpeFms-60" value="" style="line;strokeWidth=1;rotatable=0;dashed=1;labelPosition=right;align=left;verticalAlign=middle;spacingTop=0;spacingLeft=6;points=[];portConstraint=eastwest;labelBackgroundColor=none;fontColor=#000000;fillColor=default;html=1;connectable=0;allowArrows=0;dropTarget=1;" parent="HR_N4VvVfkNbBfFpeFms-1" vertex="1">
          <mxGeometry x="47" y="915" width="123" height="11" as="geometry" />
        </mxCell>
        <mxCell id="HR_N4VvVfkNbBfFpeFms-61" value="" style="line;strokeWidth=1;rotatable=0;dashed=1;labelPosition=right;align=left;verticalAlign=middle;spacingTop=0;spacingLeft=6;points=[];portConstraint=eastwest;labelBackgroundColor=none;fontColor=#000000;fillColor=default;html=1;connectable=0;allowArrows=0;dropTarget=1;" parent="HR_N4VvVfkNbBfFpeFms-1" vertex="1">
          <mxGeometry x="47" y="943" width="63" height="11" as="geometry" />
        </mxCell>
        <mxCell id="HR_N4VvVfkNbBfFpeFms-62" value="Offered" style="shape=rhombus;double=1;perimeter=rhombusPerimeter;whiteSpace=wrap;html=1;align=center;labelBackgroundColor=none;fontColor=#333333;strokeColor=#666666;fillColor=#f5f5f5;" parent="HR_N4VvVfkNbBfFpeFms-1" vertex="1">
          <mxGeometry x="53.5" y="760" width="56.5" height="50" as="geometry" />
        </mxCell>
        <mxCell id="HR_N4VvVfkNbBfFpeFms-63" style="edgeStyle=orthogonalEdgeStyle;rounded=0;orthogonalLoop=1;jettySize=auto;html=1;fontColor=#000000;startArrow=block;startFill=1;endArrow=none;endFill=0;entryX=0.5;entryY=1;entryDx=0;entryDy=0;" parent="HR_N4VvVfkNbBfFpeFms-1" source="HR_N4VvVfkNbBfFpeFms-51" target="HR_N4VvVfkNbBfFpeFms-62" edge="1">
          <mxGeometry relative="1" as="geometry">
            <mxPoint x="100" y="890" as="sourcePoint" />
            <mxPoint x="130" y="726" as="targetPoint" />
            <Array as="points">
              <mxPoint x="82" y="860" />
              <mxPoint x="82" y="860" />
            </Array>
          </mxGeometry>
        </mxCell>
        <mxCell id="HR_N4VvVfkNbBfFpeFms-64" style="edgeStyle=orthogonalEdgeStyle;rounded=0;orthogonalLoop=1;jettySize=auto;html=1;fontColor=#000000;startArrow=none;startFill=0;endArrow=block;endFill=1;" parent="HR_N4VvVfkNbBfFpeFms-1" source="HR_N4VvVfkNbBfFpeFms-65" target="HR_N4VvVfkNbBfFpeFms-21" edge="1">
          <mxGeometry relative="1" as="geometry">
            <mxPoint x="165" y="726" as="targetPoint" />
            <Array as="points">
              <mxPoint x="160" y="760" />
              <mxPoint x="160" y="760" />
            </Array>
          </mxGeometry>
        </mxCell>
        <mxCell id="HR_N4VvVfkNbBfFpeFms-65" value="Offers" style="shape=rhombus;double=1;perimeter=rhombusPerimeter;whiteSpace=wrap;html=1;align=center;labelBackgroundColor=none;fontColor=#333333;strokeColor=#666666;fillColor=#f5f5f5;" parent="HR_N4VvVfkNbBfFpeFms-1" vertex="1">
          <mxGeometry x="130" y="760" width="60" height="50" as="geometry" />
        </mxCell>
        <mxCell id="HR_N4VvVfkNbBfFpeFms-66" style="edgeStyle=orthogonalEdgeStyle;rounded=0;orthogonalLoop=1;jettySize=auto;html=1;fontColor=#000000;startArrow=none;startFill=0;endArrow=none;endFill=0;entryX=0.5;entryY=1;entryDx=0;entryDy=0;" parent="HR_N4VvVfkNbBfFpeFms-1" source="HR_N4VvVfkNbBfFpeFms-51" target="HR_N4VvVfkNbBfFpeFms-65" edge="1">
          <mxGeometry relative="1" as="geometry">
            <mxPoint x="165" y="850" as="sourcePoint" />
            <mxPoint x="200" y="726" as="targetPoint" />
            <Array as="points">
              <mxPoint x="160" y="810" />
            </Array>
          </mxGeometry>
        </mxCell>
        <mxCell id="HR_N4VvVfkNbBfFpeFms-67" value="Offers" style="shape=rhombus;perimeter=rhombusPerimeter;whiteSpace=wrap;html=1;align=center;labelBackgroundColor=none;fontColor=#333333;fillColor=#f5f5f5;strokeColor=#666666;" parent="HR_N4VvVfkNbBfFpeFms-1" vertex="1">
          <mxGeometry x="130" y="760" width="60" height="50" as="geometry" />
        </mxCell>
        <mxCell id="HR_N4VvVfkNbBfFpeFms-68" value="" style="line;strokeWidth=1;rotatable=0;dashed=1;labelPosition=right;align=left;verticalAlign=middle;spacingTop=0;spacingLeft=6;points=[];portConstraint=eastwest;labelBackgroundColor=none;fontColor=#000000;fillColor=default;html=1;connectable=0;allowArrows=0;dropTarget=1;" parent="HR_N4VvVfkNbBfFpeFms-1" vertex="1">
          <mxGeometry x="297" y="883" width="23" height="10" as="geometry" />
        </mxCell>
        <mxCell id="HR_N4VvVfkNbBfFpeFms-69" value="" style="line;strokeWidth=1;rotatable=0;dashed=1;labelPosition=right;align=left;verticalAlign=middle;spacingTop=0;spacingLeft=6;points=[];portConstraint=eastwest;labelBackgroundColor=none;fontColor=#000000;fillColor=default;html=1;connectable=0;allowArrows=0;dropTarget=1;" parent="HR_N4VvVfkNbBfFpeFms-1" vertex="1">
          <mxGeometry x="297" y="915" width="33" height="11" as="geometry" />
        </mxCell>
        <mxCell id="HR_N4VvVfkNbBfFpeFms-70" value="" style="line;strokeWidth=1;rotatable=0;dashed=1;labelPosition=right;align=left;verticalAlign=middle;spacingTop=0;spacingLeft=6;points=[];portConstraint=eastwest;labelBackgroundColor=none;fontColor=#000000;fillColor=default;html=1;connectable=0;allowArrows=0;dropTarget=1;" parent="HR_N4VvVfkNbBfFpeFms-1" vertex="1">
          <mxGeometry x="297" y="943" width="73" height="11" as="geometry" />
        </mxCell>
        <mxCell id="HR_N4VvVfkNbBfFpeFms-71" value="cancelled" style="shape=rhombus;double=1;perimeter=rhombusPerimeter;whiteSpace=wrap;html=1;align=center;labelBackgroundColor=none;fontColor=#333333;strokeColor=#666666;fillColor=#f5f5f5;" parent="HR_N4VvVfkNbBfFpeFms-1" vertex="1">
          <mxGeometry x="380" y="760" width="76.5" height="50" as="geometry" />
        </mxCell>
        <mxCell id="HR_N4VvVfkNbBfFpeFms-72" style="edgeStyle=orthogonalEdgeStyle;rounded=0;orthogonalLoop=1;jettySize=auto;html=1;fontColor=#000000;startArrow=none;startFill=0;endArrow=none;endFill=0;entryX=0.5;entryY=1;entryDx=0;entryDy=0;shape=link;" parent="HR_N4VvVfkNbBfFpeFms-1" source="HR_N4VvVfkNbBfFpeFms-40" target="HR_N4VvVfkNbBfFpeFms-71" edge="1">
          <mxGeometry relative="1" as="geometry">
            <mxPoint x="401.7500000000002" y="770" as="sourcePoint" />
            <mxPoint x="430" y="706" as="targetPoint" />
            <Array as="points">
              <mxPoint x="418" y="830" />
              <mxPoint x="418" y="830" />
            </Array>
          </mxGeometry>
        </mxCell>
        <mxCell id="HR_N4VvVfkNbBfFpeFms-73" style="edgeStyle=orthogonalEdgeStyle;rounded=0;orthogonalLoop=1;jettySize=auto;html=1;fontColor=#000000;startArrow=block;startFill=1;endArrow=none;endFill=0;entryX=0.5;entryY=1;entryDx=0;entryDy=0;" parent="HR_N4VvVfkNbBfFpeFms-1" source="HR_N4VvVfkNbBfFpeFms-45" edge="1">
          <mxGeometry relative="1" as="geometry">
            <mxPoint x="610" y="770" as="sourcePoint" />
            <mxPoint x="500" y="810" as="targetPoint" />
            <Array as="points">
              <mxPoint x="500" y="780" />
              <mxPoint x="500" y="780" />
            </Array>
          </mxGeometry>
        </mxCell>
        <mxCell id="HR_N4VvVfkNbBfFpeFms-74" value="Referral" style="swimlane;fontStyle=1;childLayout=stackLayout;horizontal=1;startSize=26;horizontalStack=0;resizeParent=1;resizeParentMax=0;resizeLast=0;collapsible=1;marginBottom=0;align=center;fontSize=14;fillColor=#dae8fc;strokeColor=#6c8ebf;labelBackgroundColor=none;fontColor=#000000;html=1;" parent="HR_N4VvVfkNbBfFpeFms-1" vertex="1">
          <mxGeometry x="680" y="115" width="130" height="56" as="geometry" />
        </mxCell>
        <mxCell id="HR_N4VvVfkNbBfFpeFms-75" value="creditAmount" style="text;strokeColor=none;fillColor=none;spacingLeft=4;spacingRight=4;overflow=hidden;rotatable=0;points=[[0,0.5],[1,0.5]];portConstraint=eastwest;fontSize=12;" parent="HR_N4VvVfkNbBfFpeFms-74" vertex="1">
          <mxGeometry y="26" width="130" height="30" as="geometry" />
        </mxCell>
        <mxCell id="HR_N4VvVfkNbBfFpeFms-76" value="Paid" style="shape=rhombus;perimeter=rhombusPerimeter;whiteSpace=wrap;html=1;align=center;labelBackgroundColor=none;fontColor=#333333;fillColor=#f5f5f5;strokeColor=#666666;" parent="HR_N4VvVfkNbBfFpeFms-1" vertex="1">
          <mxGeometry x="470" y="760" width="60" height="50" as="geometry" />
        </mxCell>
        <mxCell id="HR_N4VvVfkNbBfFpeFms-77" value="Review" style="swimlane;fontStyle=1;childLayout=stackLayout;horizontal=1;startSize=26;horizontalStack=0;resizeParent=1;resizeParentMax=0;resizeLast=0;collapsible=1;marginBottom=0;align=center;fontSize=14;fillColor=#dae8fc;strokeColor=#6c8ebf;" parent="HR_N4VvVfkNbBfFpeFms-1" vertex="1">
          <mxGeometry x="640" y="580" width="160" height="116" as="geometry" />
        </mxCell>
        <mxCell id="HR_N4VvVfkNbBfFpeFms-78" value="timestamp" style="text;strokeColor=none;fillColor=none;spacingLeft=4;spacingRight=4;overflow=hidden;rotatable=0;points=[[0,0.5],[1,0.5]];portConstraint=eastwest;fontSize=12;" parent="HR_N4VvVfkNbBfFpeFms-77" vertex="1">
          <mxGeometry y="26" width="160" height="30" as="geometry" />
        </mxCell>
        <mxCell id="HR_N4VvVfkNbBfFpeFms-79" value="numStars" style="text;strokeColor=none;fillColor=none;spacingLeft=4;spacingRight=4;overflow=hidden;rotatable=0;points=[[0,0.5],[1,0.5]];portConstraint=eastwest;fontSize=12;" parent="HR_N4VvVfkNbBfFpeFms-77" vertex="1">
          <mxGeometry y="56" width="160" height="30" as="geometry" />
        </mxCell>
        <mxCell id="HR_N4VvVfkNbBfFpeFms-80" value="comment" style="text;strokeColor=none;fillColor=none;spacingLeft=4;spacingRight=4;overflow=hidden;rotatable=0;points=[[0,0.5],[1,0.5]];portConstraint=eastwest;fontSize=12;" parent="HR_N4VvVfkNbBfFpeFms-77" vertex="1">
          <mxGeometry y="86" width="160" height="30" as="geometry" />
        </mxCell>
        <mxCell id="HR_N4VvVfkNbBfFpeFms-81" style="edgeStyle=orthogonalEdgeStyle;rounded=0;orthogonalLoop=1;jettySize=auto;html=1;exitX=0.5;exitY=1;exitDx=0;exitDy=0;endArrow=none;endFill=0;" parent="HR_N4VvVfkNbBfFpeFms-1" source="HR_N4VvVfkNbBfFpeFms-84" target="HR_N4VvVfkNbBfFpeFms-21" edge="1">
          <mxGeometry relative="1" as="geometry">
            <Array as="points">
              <mxPoint x="730" y="470" />
            </Array>
          </mxGeometry>
        </mxCell>
        <mxCell id="HR_N4VvVfkNbBfFpeFms-82" style="edgeStyle=orthogonalEdgeStyle;rounded=0;orthogonalLoop=1;jettySize=auto;html=1;exitX=0;exitY=0.5;exitDx=0;exitDy=0;endArrow=none;endFill=0;" parent="HR_N4VvVfkNbBfFpeFms-1" source="HR_N4VvVfkNbBfFpeFms-84" target="HR_N4VvVfkNbBfFpeFms-11" edge="1">
          <mxGeometry relative="1" as="geometry">
            <Array as="points">
              <mxPoint x="760" y="420" />
              <mxPoint x="760" y="420" />
              <mxPoint x="760" y="375" />
            </Array>
          </mxGeometry>
        </mxCell>
        <mxCell id="HR_N4VvVfkNbBfFpeFms-83" style="edgeStyle=orthogonalEdgeStyle;rounded=0;orthogonalLoop=1;jettySize=auto;html=1;exitX=1;exitY=0.5;exitDx=0;exitDy=0;entryX=0.75;entryY=0;entryDx=0;entryDy=0;endArrow=none;endFill=0;" parent="HR_N4VvVfkNbBfFpeFms-1" source="HR_N4VvVfkNbBfFpeFms-84" target="HR_N4VvVfkNbBfFpeFms-77" edge="1">
          <mxGeometry relative="1" as="geometry" />
        </mxCell>
        <mxCell id="HR_N4VvVfkNbBfFpeFms-84" value="Reviews" style="shape=rhombus;perimeter=rhombusPerimeter;whiteSpace=wrap;html=1;align=center;fillColor=#f5f5f5;strokeColor=#666666;fontColor=#333333;direction=south;" parent="HR_N4VvVfkNbBfFpeFms-1" vertex="1">
          <mxGeometry x="730" y="450" width="60" height="40" as="geometry" />
        </mxCell>
        <mxCell id="HR_N4VvVfkNbBfFpeFms-85" style="edgeStyle=orthogonalEdgeStyle;rounded=0;orthogonalLoop=1;jettySize=auto;html=1;startArrow=none;startFill=0;endArrow=block;endFill=1;" parent="HR_N4VvVfkNbBfFpeFms-1" source="HR_N4VvVfkNbBfFpeFms-86" target="HR_N4VvVfkNbBfFpeFms-87" edge="1">
          <mxGeometry relative="1" as="geometry">
            <mxPoint x="300" y="600" as="targetPoint" />
          </mxGeometry>
        </mxCell>
        <mxCell id="HR_N4VvVfkNbBfFpeFms-86" value="Provides" style="shape=rhombus;perimeter=rhombusPerimeter;whiteSpace=wrap;html=1;align=center;fillColor=#f5f5f5;strokeColor=#666666;fontColor=#333333;" parent="HR_N4VvVfkNbBfFpeFms-1" vertex="1">
          <mxGeometry x="260" y="516" width="60" height="48" as="geometry" />
        </mxCell>
        <mxCell id="HR_N4VvVfkNbBfFpeFms-87" value="Bank_Account" style="swimlane;fontStyle=1;childLayout=stackLayout;horizontal=1;startSize=26;horizontalStack=0;resizeParent=1;resizeParentMax=0;resizeLast=0;collapsible=1;marginBottom=0;align=center;fontSize=14;fillColor=#d5e8d4;strokeColor=#82b366;" parent="HR_N4VvVfkNbBfFpeFms-1" vertex="1">
          <mxGeometry x="230" y="580" width="120" height="176" as="geometry" />
        </mxCell>
        <mxCell id="HR_N4VvVfkNbBfFpeFms-88" value="acctNum" style="text;strokeColor=none;fillColor=none;spacingLeft=4;spacingRight=4;overflow=hidden;rotatable=0;points=[[0,0.5],[1,0.5]];portConstraint=eastwest;fontSize=12;fontStyle=0" parent="HR_N4VvVfkNbBfFpeFms-87" vertex="1">
          <mxGeometry y="26" width="120" height="30" as="geometry" />
        </mxCell>
        <mxCell id="HR_N4VvVfkNbBfFpeFms-89" value="routingNum" style="text;strokeColor=none;fillColor=none;spacingLeft=4;spacingRight=4;overflow=hidden;rotatable=0;points=[[0,0.5],[1,0.5]];portConstraint=eastwest;fontSize=12;fontStyle=0" parent="HR_N4VvVfkNbBfFpeFms-87" vertex="1">
          <mxGeometry y="56" width="120" height="30" as="geometry" />
        </mxCell>
        <mxCell id="HR_N4VvVfkNbBfFpeFms-90" value="acctType" style="text;strokeColor=none;fillColor=none;spacingLeft=4;spacingRight=4;overflow=hidden;rotatable=0;points=[[0,0.5],[1,0.5]];portConstraint=eastwest;fontSize=12;" parent="HR_N4VvVfkNbBfFpeFms-87" vertex="1">
          <mxGeometry y="86" width="120" height="30" as="geometry" />
        </mxCell>
        <mxCell id="HR_N4VvVfkNbBfFpeFms-91" value="nameOnAcct" style="text;strokeColor=none;fillColor=none;spacingLeft=4;spacingRight=4;overflow=hidden;rotatable=0;points=[[0,0.5],[1,0.5]];portConstraint=eastwest;fontSize=12;" parent="HR_N4VvVfkNbBfFpeFms-87" vertex="1">
          <mxGeometry y="116" width="120" height="30" as="geometry" />
        </mxCell>
        <mxCell id="HR_N4VvVfkNbBfFpeFms-92" value="nameOfBank" style="text;strokeColor=none;fillColor=none;spacingLeft=4;spacingRight=4;overflow=hidden;rotatable=0;points=[[0,0.5],[1,0.5]];portConstraint=eastwest;fontSize=12;" parent="HR_N4VvVfkNbBfFpeFms-87" vertex="1">
          <mxGeometry y="146" width="120" height="30" as="geometry" />
        </mxCell>
        <mxCell id="HLqhDG5MH3NCzD-gHOtO-0" value="" style="line;strokeWidth=1;rotatable=0;dashed=1;labelPosition=right;align=left;verticalAlign=middle;spacingTop=0;spacingLeft=6;points=[];portConstraint=eastwest;labelBackgroundColor=none;fontColor=#000000;fillColor=default;html=1;connectable=0;allowArrows=0;dropTarget=1;" vertex="1" parent="HR_N4VvVfkNbBfFpeFms-1">
          <mxGeometry x="236" y="623" width="47" height="10" as="geometry" />
        </mxCell>
        <mxCell id="HLqhDG5MH3NCzD-gHOtO-1" value="" style="line;strokeWidth=1;rotatable=0;dashed=1;labelPosition=right;align=left;verticalAlign=middle;spacingTop=0;spacingLeft=6;points=[];portConstraint=eastwest;labelBackgroundColor=none;fontColor=#000000;fillColor=default;html=1;connectable=0;allowArrows=0;dropTarget=1;" vertex="1" parent="HR_N4VvVfkNbBfFpeFms-1">
          <mxGeometry x="236" y="655" width="55" height="11" as="geometry" />
        </mxCell>
      </root>
    </mxGraphModel>
  </diagram>
  <diagram id="DKpe4mUvOTaGuEhI5bh1" name="1.4">
    <mxGraphModel dx="1248" dy="625" grid="0" gridSize="10" guides="1" tooltips="1" connect="1" arrows="1" fold="1" page="1" pageScale="1" pageWidth="850" pageHeight="1100" math="0" shadow="0">
      <root>
        <mxCell id="AWIagizLV03SVur9iIzs-0" />
        <mxCell id="AWIagizLV03SVur9iIzs-1" parent="AWIagizLV03SVur9iIzs-0" />
        <mxCell id="AWIagizLV03SVur9iIzs-2" style="edgeStyle=orthogonalEdgeStyle;rounded=0;orthogonalLoop=1;jettySize=auto;html=1;startArrow=block;startFill=0;endArrow=none;endFill=0;" parent="AWIagizLV03SVur9iIzs-1" source="AWIagizLV03SVur9iIzs-4" target="AWIagizLV03SVur9iIzs-11" edge="1">
          <mxGeometry relative="1" as="geometry" />
        </mxCell>
        <mxCell id="AWIagizLV03SVur9iIzs-3" style="edgeStyle=orthogonalEdgeStyle;rounded=0;orthogonalLoop=1;jettySize=auto;html=1;startArrow=block;startFill=0;endArrow=none;endFill=0;" parent="AWIagizLV03SVur9iIzs-1" source="AWIagizLV03SVur9iIzs-4" target="AWIagizLV03SVur9iIzs-15" edge="1">
          <mxGeometry relative="1" as="geometry" />
        </mxCell>
        <mxCell id="AWIagizLV03SVur9iIzs-4" value="User" style="swimlane;fontStyle=1;childLayout=stackLayout;horizontal=1;startSize=26;horizontalStack=0;resizeParent=1;resizeParentMax=0;resizeLast=0;collapsible=1;marginBottom=0;align=center;fontSize=14;fillColor=#dae8fc;strokeColor=#6c8ebf;" parent="AWIagizLV03SVur9iIzs-1" vertex="1">
          <mxGeometry x="380" y="40" width="160" height="206" as="geometry" />
        </mxCell>
        <mxCell id="AWIagizLV03SVur9iIzs-5" value="emailAddress" style="text;strokeColor=none;fillColor=none;spacingLeft=4;spacingRight=4;overflow=hidden;rotatable=0;points=[[0,0.5],[1,0.5]];portConstraint=eastwest;fontSize=12;fontStyle=4" parent="AWIagizLV03SVur9iIzs-4" vertex="1">
          <mxGeometry y="26" width="160" height="30" as="geometry" />
        </mxCell>
        <mxCell id="AWIagizLV03SVur9iIzs-6" value="firstName" style="text;strokeColor=none;fillColor=none;spacingLeft=4;spacingRight=4;overflow=hidden;rotatable=0;points=[[0,0.5],[1,0.5]];portConstraint=eastwest;fontSize=12;" parent="AWIagizLV03SVur9iIzs-4" vertex="1">
          <mxGeometry y="56" width="160" height="30" as="geometry" />
        </mxCell>
        <mxCell id="AWIagizLV03SVur9iIzs-7" value="lastName" style="text;strokeColor=none;fillColor=none;spacingLeft=4;spacingRight=4;overflow=hidden;rotatable=0;points=[[0,0.5],[1,0.5]];portConstraint=eastwest;fontSize=12;" parent="AWIagizLV03SVur9iIzs-4" vertex="1">
          <mxGeometry y="86" width="160" height="30" as="geometry" />
        </mxCell>
        <mxCell id="AWIagizLV03SVur9iIzs-8" value="dateOfBirth" style="text;strokeColor=none;fillColor=none;spacingLeft=4;spacingRight=4;overflow=hidden;rotatable=0;points=[[0,0.5],[1,0.5]];portConstraint=eastwest;fontSize=12;" parent="AWIagizLV03SVur9iIzs-4" vertex="1">
          <mxGeometry y="116" width="160" height="30" as="geometry" />
        </mxCell>
        <mxCell id="AWIagizLV03SVur9iIzs-9" value="age()" style="text;strokeColor=none;fillColor=none;spacingLeft=4;spacingRight=4;overflow=hidden;rotatable=0;points=[[0,0.5],[1,0.5]];portConstraint=eastwest;fontSize=12;" parent="AWIagizLV03SVur9iIzs-4" vertex="1">
          <mxGeometry y="146" width="160" height="30" as="geometry" />
        </mxCell>
        <mxCell id="AWIagizLV03SVur9iIzs-10" value="{ phoneNumber }" style="text;strokeColor=none;fillColor=none;spacingLeft=4;spacingRight=4;overflow=hidden;rotatable=0;points=[[0,0.5],[1,0.5]];portConstraint=eastwest;fontSize=12;" parent="AWIagizLV03SVur9iIzs-4" vertex="1">
          <mxGeometry y="176" width="160" height="30" as="geometry" />
        </mxCell>
        <mxCell id="AWIagizLV03SVur9iIzs-11" value="Guest" style="swimlane;fontStyle=1;childLayout=stackLayout;horizontal=1;startSize=26;horizontalStack=0;resizeParent=1;resizeParentMax=0;resizeLast=0;collapsible=1;marginBottom=0;align=center;fontSize=14;fillColor=#dae8fc;strokeColor=#6c8ebf;" parent="AWIagizLV03SVur9iIzs-1" vertex="1">
          <mxGeometry x="540" y="330" width="160" height="90" as="geometry" />
        </mxCell>
        <mxCell id="AWIagizLV03SVur9iIzs-12" value="emailAddress" style="text;strokeColor=none;fillColor=none;spacingLeft=4;spacingRight=4;overflow=hidden;rotatable=0;points=[[0,0.5],[1,0.5]];portConstraint=eastwest;fontSize=12;labelBackgroundColor=none;fontColor=default;fontStyle=4" parent="AWIagizLV03SVur9iIzs-11" vertex="1">
          <mxGeometry y="26" width="160" height="64" as="geometry" />
        </mxCell>
        <mxCell id="AWIagizLV03SVur9iIzs-13" style="edgeStyle=orthogonalEdgeStyle;rounded=0;orthogonalLoop=1;jettySize=auto;html=1;entryX=1;entryY=0.5;entryDx=0;entryDy=0;startArrow=block;startFill=1;endArrow=none;endFill=0;exitX=0.002;exitY=0.169;exitDx=0;exitDy=0;exitPerimeter=0;" parent="AWIagizLV03SVur9iIzs-1" source="AWIagizLV03SVur9iIzs-15" target="AWIagizLV03SVur9iIzs-20" edge="1">
          <mxGeometry relative="1" as="geometry">
            <mxPoint x="210" y="345" as="sourcePoint" />
            <Array as="points">
              <mxPoint x="200" y="345" />
            </Array>
          </mxGeometry>
        </mxCell>
        <mxCell id="AWIagizLV03SVur9iIzs-14" style="edgeStyle=orthogonalEdgeStyle;rounded=0;orthogonalLoop=1;jettySize=auto;html=1;startArrow=block;startFill=1;endArrow=none;endFill=0;" parent="AWIagizLV03SVur9iIzs-1" source="AWIagizLV03SVur9iIzs-15" target="AWIagizLV03SVur9iIzs-86" edge="1">
          <mxGeometry relative="1" as="geometry">
            <mxPoint x="300" y="540" as="targetPoint" />
            <Array as="points">
              <mxPoint x="290" y="470" />
              <mxPoint x="290" y="470" />
            </Array>
          </mxGeometry>
        </mxCell>
        <mxCell id="AWIagizLV03SVur9iIzs-15" value="Host" style="swimlane;fontStyle=1;childLayout=stackLayout;horizontal=1;startSize=26;horizontalStack=0;resizeParent=1;resizeParentMax=0;resizeLast=0;collapsible=1;marginBottom=0;align=center;fontSize=14;fillColor=#dae8fc;strokeColor=#6c8ebf;" parent="AWIagizLV03SVur9iIzs-1" vertex="1">
          <mxGeometry x="220" y="330" width="160" height="90" as="geometry" />
        </mxCell>
        <mxCell id="AWIagizLV03SVur9iIzs-16" value="SSN" style="text;strokeColor=none;fillColor=none;spacingLeft=4;spacingRight=4;overflow=hidden;rotatable=0;points=[[0,0.5],[1,0.5]];portConstraint=eastwest;fontSize=12;fontStyle=4" parent="AWIagizLV03SVur9iIzs-15" vertex="1">
          <mxGeometry y="26" width="160" height="30" as="geometry" />
        </mxCell>
        <mxCell id="AWIagizLV03SVur9iIzs-17" value="insurancePolicyID" style="text;strokeColor=none;fillColor=none;spacingLeft=4;spacingRight=4;overflow=hidden;rotatable=0;points=[[0,0.5],[1,0.5]];portConstraint=eastwest;fontSize=12;" parent="AWIagizLV03SVur9iIzs-15" vertex="1">
          <mxGeometry y="56" width="160" height="34" as="geometry" />
        </mxCell>
        <mxCell id="AWIagizLV03SVur9iIzs-18" value="Total . . . . . . .Â " style="text;strokeColor=none;fillColor=none;spacingLeft=4;spacingRight=4;overflow=hidden;rotatable=0;points=[[0,0.5],[1,0.5]];portConstraint=eastwest;fontSize=12;" parent="AWIagizLV03SVur9iIzs-1" vertex="1">
          <mxGeometry x="383" y="254" width="80" height="30" as="geometry" />
        </mxCell>
        <mxCell id="AWIagizLV03SVur9iIzs-19" style="edgeStyle=orthogonalEdgeStyle;rounded=0;orthogonalLoop=1;jettySize=auto;html=1;exitX=0.5;exitY=1;exitDx=0;exitDy=0;entryX=0.5;entryY=0;entryDx=0;entryDy=0;startArrow=none;startFill=0;endArrow=none;endFill=0;" parent="AWIagizLV03SVur9iIzs-1" source="AWIagizLV03SVur9iIzs-20" target="AWIagizLV03SVur9iIzs-21" edge="1">
          <mxGeometry relative="1" as="geometry" />
        </mxCell>
        <mxCell id="AWIagizLV03SVur9iIzs-20" value="Offers" style="shape=rhombus;perimeter=rhombusPerimeter;whiteSpace=wrap;html=1;align=center;fillColor=#f5f5f5;strokeColor=#666666;fontColor=#333333;" parent="AWIagizLV03SVur9iIzs-1" vertex="1">
          <mxGeometry x="90" y="320" width="60" height="50" as="geometry" />
        </mxCell>
        <mxCell id="AWIagizLV03SVur9iIzs-21" value="Lodging" style="swimlane;fontStyle=1;childLayout=stackLayout;horizontal=1;startSize=26;horizontalStack=0;resizeParent=1;resizeParentMax=0;resizeLast=0;collapsible=1;marginBottom=0;align=center;fontSize=14;fillColor=#dae8fc;strokeColor=#6c8ebf;" parent="AWIagizLV03SVur9iIzs-1" vertex="1">
          <mxGeometry x="40" y="460" width="160" height="266" as="geometry" />
        </mxCell>
        <mxCell id="AWIagizLV03SVur9iIzs-22" value="ID" style="text;strokeColor=none;fillColor=none;spacingLeft=4;spacingRight=4;overflow=hidden;rotatable=0;points=[[0,0.5],[1,0.5]];portConstraint=eastwest;fontSize=12;fontStyle=4" parent="AWIagizLV03SVur9iIzs-21" vertex="1">
          <mxGeometry y="26" width="160" height="30" as="geometry" />
        </mxCell>
        <mxCell id="AWIagizLV03SVur9iIzs-23" value="type" style="text;strokeColor=none;fillColor=none;spacingLeft=4;spacingRight=4;overflow=hidden;rotatable=0;points=[[0,0.5],[1,0.5]];portConstraint=eastwest;fontSize=12;" parent="AWIagizLV03SVur9iIzs-21" vertex="1">
          <mxGeometry y="56" width="160" height="30" as="geometry" />
        </mxCell>
        <mxCell id="AWIagizLV03SVur9iIzs-24" value="maxOccupancy" style="text;strokeColor=none;fillColor=none;spacingLeft=4;spacingRight=4;overflow=hidden;rotatable=0;points=[[0,0.5],[1,0.5]];portConstraint=eastwest;fontSize=12;" parent="AWIagizLV03SVur9iIzs-21" vertex="1">
          <mxGeometry y="86" width="160" height="30" as="geometry" />
        </mxCell>
        <mxCell id="AWIagizLV03SVur9iIzs-25" value="numBedrooms" style="text;strokeColor=none;fillColor=none;spacingLeft=4;spacingRight=4;overflow=hidden;rotatable=0;points=[[0,0.5],[1,0.5]];portConstraint=eastwest;fontSize=12;" parent="AWIagizLV03SVur9iIzs-21" vertex="1">
          <mxGeometry y="116" width="160" height="30" as="geometry" />
        </mxCell>
        <mxCell id="AWIagizLV03SVur9iIzs-26" value="numBeds" style="text;strokeColor=none;fillColor=none;spacingLeft=4;spacingRight=4;overflow=hidden;rotatable=0;points=[[0,0.5],[1,0.5]];portConstraint=eastwest;fontSize=12;" parent="AWIagizLV03SVur9iIzs-21" vertex="1">
          <mxGeometry y="146" width="160" height="30" as="geometry" />
        </mxCell>
        <mxCell id="AWIagizLV03SVur9iIzs-27" value="numBathrooms" style="text;strokeColor=none;fillColor=none;spacingLeft=4;spacingRight=4;overflow=hidden;rotatable=0;points=[[0,0.5],[1,0.5]];portConstraint=eastwest;fontSize=12;" parent="AWIagizLV03SVur9iIzs-21" vertex="1">
          <mxGeometry y="176" width="160" height="30" as="geometry" />
        </mxCell>
        <mxCell id="AWIagizLV03SVur9iIzs-28" value="pricePerNight" style="text;strokeColor=none;fillColor=none;spacingLeft=4;spacingRight=4;overflow=hidden;rotatable=0;points=[[0,0.5],[1,0.5]];portConstraint=eastwest;fontSize=12;" parent="AWIagizLV03SVur9iIzs-21" vertex="1">
          <mxGeometry y="206" width="160" height="30" as="geometry" />
        </mxCell>
        <mxCell id="AWIagizLV03SVur9iIzs-29" value="{ address }" style="text;strokeColor=none;fillColor=none;spacingLeft=4;spacingRight=4;overflow=hidden;rotatable=0;points=[[0,0.5],[1,0.5]];portConstraint=eastwest;fontSize=12;" parent="AWIagizLV03SVur9iIzs-21" vertex="1">
          <mxGeometry y="236" width="160" height="30" as="geometry" />
        </mxCell>
        <mxCell id="AWIagizLV03SVur9iIzs-30" style="edgeStyle=orthogonalEdgeStyle;rounded=0;orthogonalLoop=1;jettySize=auto;html=1;entryX=0.51;entryY=0.972;entryDx=0;entryDy=0;startArrow=none;startFill=0;endArrow=block;endFill=1;entryPerimeter=0;exitX=1;exitY=0.5;exitDx=0;exitDy=0;" parent="AWIagizLV03SVur9iIzs-1" source="AWIagizLV03SVur9iIzs-33" target="AWIagizLV03SVur9iIzs-12" edge="1">
          <mxGeometry relative="1" as="geometry">
            <Array as="points">
              <mxPoint x="622" y="501" />
            </Array>
          </mxGeometry>
        </mxCell>
        <mxCell id="AWIagizLV03SVur9iIzs-31" style="edgeStyle=orthogonalEdgeStyle;rounded=0;orthogonalLoop=1;jettySize=auto;html=1;exitX=0;exitY=0.5;exitDx=0;exitDy=0;entryX=1;entryY=0.5;entryDx=0;entryDy=0;startArrow=none;startFill=0;endArrow=none;endFill=0;" parent="AWIagizLV03SVur9iIzs-1" source="AWIagizLV03SVur9iIzs-33" target="AWIagizLV03SVur9iIzs-22" edge="1">
          <mxGeometry relative="1" as="geometry">
            <Array as="points">
              <mxPoint x="340" y="501" />
            </Array>
          </mxGeometry>
        </mxCell>
        <mxCell id="AWIagizLV03SVur9iIzs-32" style="edgeStyle=orthogonalEdgeStyle;rounded=0;orthogonalLoop=1;jettySize=auto;html=1;exitX=0.5;exitY=1;exitDx=0;exitDy=0;startArrow=block;startFill=1;endArrow=none;endFill=0;entryX=0.5;entryY=0;entryDx=0;entryDy=0;" parent="AWIagizLV03SVur9iIzs-1" source="AWIagizLV03SVur9iIzs-33" target="AWIagizLV03SVur9iIzs-34" edge="1">
          <mxGeometry relative="1" as="geometry">
            <mxPoint x="460" y="560" as="targetPoint" />
          </mxGeometry>
        </mxCell>
        <mxCell id="AWIagizLV03SVur9iIzs-33" value="Books" style="shape=rhombus;perimeter=rhombusPerimeter;whiteSpace=wrap;html=1;align=center;fillColor=#f5f5f5;strokeColor=#666666;fontColor=#333333;" parent="AWIagizLV03SVur9iIzs-1" vertex="1">
          <mxGeometry x="430" y="477" width="60" height="48" as="geometry" />
        </mxCell>
        <mxCell id="AWIagizLV03SVur9iIzs-34" value="Booking" style="swimlane;fontStyle=1;childLayout=stackLayout;horizontal=1;startSize=26;horizontalStack=0;resizeParent=1;resizeParentMax=0;resizeLast=0;collapsible=1;marginBottom=0;align=center;fontSize=14;fillColor=#dae8fc;strokeColor=#6c8ebf;" parent="AWIagizLV03SVur9iIzs-1" vertex="1">
          <mxGeometry x="380" y="580" width="160" height="146" as="geometry" />
        </mxCell>
        <mxCell id="AWIagizLV03SVur9iIzs-35" value="checkInDate" style="text;strokeColor=none;fillColor=none;spacingLeft=4;spacingRight=4;overflow=hidden;rotatable=0;points=[[0,0.5],[1,0.5]];portConstraint=eastwest;fontSize=12;" parent="AWIagizLV03SVur9iIzs-34" vertex="1">
          <mxGeometry y="26" width="160" height="30" as="geometry" />
        </mxCell>
        <mxCell id="AWIagizLV03SVur9iIzs-36" value="checkOutDate" style="text;strokeColor=none;fillColor=none;spacingLeft=4;spacingRight=4;overflow=hidden;rotatable=0;points=[[0,0.5],[1,0.5]];portConstraint=eastwest;fontSize=12;" parent="AWIagizLV03SVur9iIzs-34" vertex="1">
          <mxGeometry y="56" width="160" height="30" as="geometry" />
        </mxCell>
        <mxCell id="AWIagizLV03SVur9iIzs-37" value="numGuests" style="text;strokeColor=none;fillColor=none;spacingLeft=4;spacingRight=4;overflow=hidden;rotatable=0;points=[[0,0.5],[1,0.5]];portConstraint=eastwest;fontSize=12;" parent="AWIagizLV03SVur9iIzs-34" vertex="1">
          <mxGeometry y="86" width="160" height="30" as="geometry" />
        </mxCell>
        <mxCell id="AWIagizLV03SVur9iIzs-38" value="bookingCost" style="text;strokeColor=none;fillColor=none;spacingLeft=4;spacingRight=4;overflow=hidden;rotatable=0;points=[[0,0.5],[1,0.5]];portConstraint=eastwest;fontSize=12;" parent="AWIagizLV03SVur9iIzs-34" vertex="1">
          <mxGeometry y="116" width="160" height="30" as="geometry" />
        </mxCell>
        <mxCell id="AWIagizLV03SVur9iIzs-39" style="edgeStyle=orthogonalEdgeStyle;rounded=0;orthogonalLoop=1;jettySize=auto;html=1;fontColor=#000000;startArrow=none;startFill=0;endArrow=none;endFill=0;exitX=0.5;exitY=0;exitDx=0;exitDy=0;" parent="AWIagizLV03SVur9iIzs-1" source="AWIagizLV03SVur9iIzs-71" target="AWIagizLV03SVur9iIzs-34" edge="1">
          <mxGeometry relative="1" as="geometry">
            <Array as="points">
              <mxPoint x="418" y="730" />
              <mxPoint x="418" y="730" />
            </Array>
          </mxGeometry>
        </mxCell>
        <mxCell id="AWIagizLV03SVur9iIzs-40" value="Cancellation" style="swimlane;fontStyle=1;childLayout=stackLayout;horizontal=1;startSize=26;horizontalStack=0;resizeParent=1;resizeParentMax=0;resizeLast=0;collapsible=1;marginBottom=0;align=center;fontSize=14;fillColor=#dae8fc;strokeColor=#6c8ebf;labelBackgroundColor=none;fontColor=#000000;" parent="AWIagizLV03SVur9iIzs-1" vertex="1">
          <mxGeometry x="290" y="840" width="160" height="150" as="geometry" />
        </mxCell>
        <mxCell id="AWIagizLV03SVur9iIzs-41" value="date" style="text;strokeColor=none;fillColor=none;spacingLeft=4;spacingRight=4;overflow=hidden;rotatable=0;points=[[0,0.5],[1,0.5]];portConstraint=eastwest;fontSize=12;" parent="AWIagizLV03SVur9iIzs-40" vertex="1">
          <mxGeometry y="26" width="160" height="30" as="geometry" />
        </mxCell>
        <mxCell id="AWIagizLV03SVur9iIzs-42" value="reason" style="text;strokeColor=none;fillColor=none;spacingLeft=4;spacingRight=4;overflow=hidden;rotatable=0;points=[[0,0.5],[1,0.5]];portConstraint=eastwest;fontSize=12;" parent="AWIagizLV03SVur9iIzs-40" vertex="1">
          <mxGeometry y="56" width="160" height="30" as="geometry" />
        </mxCell>
        <mxCell id="AWIagizLV03SVur9iIzs-43" value="refundAmount" style="text;strokeColor=none;fillColor=none;spacingLeft=4;spacingRight=4;overflow=hidden;rotatable=0;points=[[0,0.5],[1,0.5]];portConstraint=eastwest;fontSize=12;" parent="AWIagizLV03SVur9iIzs-40" vertex="1">
          <mxGeometry y="86" width="160" height="64" as="geometry" />
        </mxCell>
        <mxCell id="AWIagizLV03SVur9iIzs-44" style="edgeStyle=orthogonalEdgeStyle;rounded=0;orthogonalLoop=1;jettySize=auto;html=1;fontColor=#000000;startArrow=none;startFill=0;endArrow=block;endFill=1;exitX=0.5;exitY=0;exitDx=0;exitDy=0;" parent="AWIagizLV03SVur9iIzs-1" target="AWIagizLV03SVur9iIzs-34" edge="1">
          <mxGeometry relative="1" as="geometry">
            <mxPoint x="500" y="760" as="sourcePoint" />
            <Array as="points">
              <mxPoint x="500" y="750" />
              <mxPoint x="500" y="750" />
            </Array>
          </mxGeometry>
        </mxCell>
        <mxCell id="AWIagizLV03SVur9iIzs-45" value="Payment_Info" style="swimlane;fontStyle=1;childLayout=stackLayout;horizontal=1;startSize=26;horizontalStack=0;resizeParent=1;resizeParentMax=0;resizeLast=0;collapsible=1;marginBottom=0;align=center;fontSize=14;fillColor=#dae8fc;strokeColor=#6c8ebf;labelBackgroundColor=none;fontColor=#000000;" parent="AWIagizLV03SVur9iIzs-1" vertex="1">
          <mxGeometry x="470" y="840" width="160" height="150" as="geometry" />
        </mxCell>
        <mxCell id="AWIagizLV03SVur9iIzs-46" value="creditCardNum" style="text;strokeColor=none;fillColor=none;spacingLeft=4;spacingRight=4;overflow=hidden;rotatable=0;points=[[0,0.5],[1,0.5]];portConstraint=eastwest;fontSize=12;" parent="AWIagizLV03SVur9iIzs-45" vertex="1">
          <mxGeometry y="26" width="160" height="30" as="geometry" />
        </mxCell>
        <mxCell id="AWIagizLV03SVur9iIzs-47" value="expireDate" style="text;strokeColor=none;fillColor=none;spacingLeft=4;spacingRight=4;overflow=hidden;rotatable=0;points=[[0,0.5],[1,0.5]];portConstraint=eastwest;fontSize=12;" parent="AWIagizLV03SVur9iIzs-45" vertex="1">
          <mxGeometry y="56" width="160" height="30" as="geometry" />
        </mxCell>
        <mxCell id="AWIagizLV03SVur9iIzs-48" value="transactionAmt" style="text;strokeColor=none;fillColor=none;spacingLeft=4;spacingRight=4;overflow=hidden;rotatable=0;points=[[0,0.5],[1,0.5]];portConstraint=eastwest;fontSize=12;" parent="AWIagizLV03SVur9iIzs-45" vertex="1">
          <mxGeometry y="86" width="160" height="30" as="geometry" />
        </mxCell>
        <mxCell id="AWIagizLV03SVur9iIzs-49" value="timestamp" style="text;strokeColor=none;fillColor=none;spacingLeft=4;spacingRight=4;overflow=hidden;rotatable=0;points=[[0,0.5],[1,0.5]];portConstraint=eastwest;fontSize=12;" parent="AWIagizLV03SVur9iIzs-45" vertex="1">
          <mxGeometry y="116" width="160" height="34" as="geometry" />
        </mxCell>
        <mxCell id="AWIagizLV03SVur9iIzs-50" style="edgeStyle=orthogonalEdgeStyle;rounded=0;orthogonalLoop=1;jettySize=auto;html=1;fontColor=#000000;startArrow=none;startFill=0;endArrow=none;endFill=0;" parent="AWIagizLV03SVur9iIzs-1" source="AWIagizLV03SVur9iIzs-62" target="AWIagizLV03SVur9iIzs-21" edge="1">
          <mxGeometry relative="1" as="geometry">
            <Array as="points">
              <mxPoint x="82" y="750" />
              <mxPoint x="82" y="750" />
            </Array>
          </mxGeometry>
        </mxCell>
        <mxCell id="AWIagizLV03SVur9iIzs-51" value="Discount" style="swimlane;fontStyle=1;childLayout=stackLayout;horizontal=1;startSize=26;horizontalStack=0;resizeParent=1;resizeParentMax=0;resizeLast=0;collapsible=1;marginBottom=0;align=center;fontSize=14;fillColor=#dae8fc;strokeColor=#6c8ebf;labelBackgroundColor=none;fontColor=#000000;" parent="AWIagizLV03SVur9iIzs-1" vertex="1">
          <mxGeometry x="40" y="840" width="160" height="150" as="geometry" />
        </mxCell>
        <mxCell id="AWIagizLV03SVur9iIzs-52" value="minNumNightStays" style="text;strokeColor=none;fillColor=none;spacingLeft=4;spacingRight=4;overflow=hidden;rotatable=0;points=[[0,0.5],[1,0.5]];portConstraint=eastwest;fontSize=12;dashed=1;html=1;" parent="AWIagizLV03SVur9iIzs-51" vertex="1">
          <mxGeometry y="26" width="160" height="30" as="geometry" />
        </mxCell>
        <mxCell id="AWIagizLV03SVur9iIzs-53" value="maxNightsBeforeChkIn" style="text;strokeColor=none;fillColor=none;spacingLeft=4;spacingRight=4;overflow=hidden;rotatable=0;points=[[0,0.5],[1,0.5]];portConstraint=eastwest;fontSize=12;" parent="AWIagizLV03SVur9iIzs-51" vertex="1">
          <mxGeometry y="56" width="160" height="30" as="geometry" />
        </mxCell>
        <mxCell id="AWIagizLV03SVur9iIzs-54" value="percentage" style="text;strokeColor=none;fillColor=none;spacingLeft=4;spacingRight=4;overflow=hidden;rotatable=0;points=[[0,0.5],[1,0.5]];portConstraint=eastwest;fontSize=12;" parent="AWIagizLV03SVur9iIzs-51" vertex="1">
          <mxGeometry y="86" width="160" height="64" as="geometry" />
        </mxCell>
        <mxCell id="AWIagizLV03SVur9iIzs-55" style="edgeStyle=orthogonalEdgeStyle;rounded=0;orthogonalLoop=1;jettySize=auto;html=1;exitX=1;exitY=0.5;exitDx=0;exitDy=0;fontColor=#000000;startArrow=block;startFill=1;endArrow=block;endFill=1;" parent="AWIagizLV03SVur9iIzs-1" source="AWIagizLV03SVur9iIzs-56" target="AWIagizLV03SVur9iIzs-74" edge="1">
          <mxGeometry relative="1" as="geometry" />
        </mxCell>
        <mxCell id="AWIagizLV03SVur9iIzs-56" value="Referral" style="shape=rhombus;perimeter=rhombusPerimeter;whiteSpace=wrap;html=1;align=center;labelBackgroundColor=none;fontColor=#333333;fillColor=#f5f5f5;strokeColor=#666666;" parent="AWIagizLV03SVur9iIzs-1" vertex="1">
          <mxGeometry x="570" y="118.75" width="60" height="48.5" as="geometry" />
        </mxCell>
        <mxCell id="AWIagizLV03SVur9iIzs-57" style="edgeStyle=orthogonalEdgeStyle;rounded=0;orthogonalLoop=1;jettySize=auto;html=1;exitX=1;exitY=0.5;exitDx=0;exitDy=0;entryX=0.5;entryY=1;entryDx=0;entryDy=0;fontColor=#000000;startArrow=block;startFill=1;endArrow=none;endFill=0;" parent="AWIagizLV03SVur9iIzs-1" source="AWIagizLV03SVur9iIzs-9" target="AWIagizLV03SVur9iIzs-56" edge="1">
          <mxGeometry relative="1" as="geometry" />
        </mxCell>
        <mxCell id="AWIagizLV03SVur9iIzs-58" style="edgeStyle=orthogonalEdgeStyle;rounded=0;orthogonalLoop=1;jettySize=auto;html=1;exitX=1;exitY=0.5;exitDx=0;exitDy=0;fontColor=#000000;startArrow=block;startFill=1;endArrow=none;endFill=0;" parent="AWIagizLV03SVur9iIzs-1" source="AWIagizLV03SVur9iIzs-5" target="AWIagizLV03SVur9iIzs-56" edge="1">
          <mxGeometry relative="1" as="geometry">
            <mxPoint x="650" y="110" as="targetPoint" />
          </mxGeometry>
        </mxCell>
        <mxCell id="AWIagizLV03SVur9iIzs-59" value="" style="line;strokeWidth=1;rotatable=0;dashed=1;labelPosition=right;align=left;verticalAlign=middle;spacingTop=0;spacingLeft=6;points=[];portConstraint=eastwest;labelBackgroundColor=none;fontColor=#000000;fillColor=default;html=1;connectable=0;allowArrows=0;dropTarget=1;" parent="AWIagizLV03SVur9iIzs-1" vertex="1">
          <mxGeometry x="47" y="883" width="103" height="10" as="geometry" />
        </mxCell>
        <mxCell id="AWIagizLV03SVur9iIzs-60" value="" style="line;strokeWidth=1;rotatable=0;dashed=1;labelPosition=right;align=left;verticalAlign=middle;spacingTop=0;spacingLeft=6;points=[];portConstraint=eastwest;labelBackgroundColor=none;fontColor=#000000;fillColor=default;html=1;connectable=0;allowArrows=0;dropTarget=1;" parent="AWIagizLV03SVur9iIzs-1" vertex="1">
          <mxGeometry x="47" y="915" width="123" height="11" as="geometry" />
        </mxCell>
        <mxCell id="AWIagizLV03SVur9iIzs-61" value="" style="line;strokeWidth=1;rotatable=0;dashed=1;labelPosition=right;align=left;verticalAlign=middle;spacingTop=0;spacingLeft=6;points=[];portConstraint=eastwest;labelBackgroundColor=none;fontColor=#000000;fillColor=default;html=1;connectable=0;allowArrows=0;dropTarget=1;" parent="AWIagizLV03SVur9iIzs-1" vertex="1">
          <mxGeometry x="47" y="943" width="63" height="11" as="geometry" />
        </mxCell>
        <mxCell id="AWIagizLV03SVur9iIzs-62" value="Offered" style="shape=rhombus;double=1;perimeter=rhombusPerimeter;whiteSpace=wrap;html=1;align=center;labelBackgroundColor=none;fontColor=#333333;strokeColor=#666666;fillColor=#f5f5f5;" parent="AWIagizLV03SVur9iIzs-1" vertex="1">
          <mxGeometry x="53.5" y="760" width="56.5" height="50" as="geometry" />
        </mxCell>
        <mxCell id="AWIagizLV03SVur9iIzs-63" style="edgeStyle=orthogonalEdgeStyle;rounded=0;orthogonalLoop=1;jettySize=auto;html=1;fontColor=#000000;startArrow=block;startFill=1;endArrow=none;endFill=0;entryX=0.5;entryY=1;entryDx=0;entryDy=0;" parent="AWIagizLV03SVur9iIzs-1" source="AWIagizLV03SVur9iIzs-51" target="AWIagizLV03SVur9iIzs-62" edge="1">
          <mxGeometry relative="1" as="geometry">
            <mxPoint x="100" y="890" as="sourcePoint" />
            <mxPoint x="130" y="726" as="targetPoint" />
            <Array as="points">
              <mxPoint x="82" y="860" />
              <mxPoint x="82" y="860" />
            </Array>
          </mxGeometry>
        </mxCell>
        <mxCell id="AWIagizLV03SVur9iIzs-64" style="edgeStyle=orthogonalEdgeStyle;rounded=0;orthogonalLoop=1;jettySize=auto;html=1;fontColor=#000000;startArrow=none;startFill=0;endArrow=block;endFill=1;" parent="AWIagizLV03SVur9iIzs-1" source="AWIagizLV03SVur9iIzs-65" target="AWIagizLV03SVur9iIzs-21" edge="1">
          <mxGeometry relative="1" as="geometry">
            <mxPoint x="165" y="726" as="targetPoint" />
            <Array as="points">
              <mxPoint x="160" y="760" />
              <mxPoint x="160" y="760" />
            </Array>
          </mxGeometry>
        </mxCell>
        <mxCell id="AWIagizLV03SVur9iIzs-65" value="Offers" style="shape=rhombus;double=1;perimeter=rhombusPerimeter;whiteSpace=wrap;html=1;align=center;labelBackgroundColor=none;fontColor=#333333;strokeColor=#666666;fillColor=#f5f5f5;" parent="AWIagizLV03SVur9iIzs-1" vertex="1">
          <mxGeometry x="130" y="760" width="60" height="50" as="geometry" />
        </mxCell>
        <mxCell id="AWIagizLV03SVur9iIzs-66" style="edgeStyle=orthogonalEdgeStyle;rounded=0;orthogonalLoop=1;jettySize=auto;html=1;fontColor=#000000;startArrow=none;startFill=0;endArrow=none;endFill=0;entryX=0.5;entryY=1;entryDx=0;entryDy=0;" parent="AWIagizLV03SVur9iIzs-1" source="AWIagizLV03SVur9iIzs-51" target="AWIagizLV03SVur9iIzs-65" edge="1">
          <mxGeometry relative="1" as="geometry">
            <mxPoint x="165" y="850" as="sourcePoint" />
            <mxPoint x="200" y="726" as="targetPoint" />
            <Array as="points">
              <mxPoint x="160" y="810" />
            </Array>
          </mxGeometry>
        </mxCell>
        <mxCell id="AWIagizLV03SVur9iIzs-67" value="Offers" style="shape=rhombus;perimeter=rhombusPerimeter;whiteSpace=wrap;html=1;align=center;labelBackgroundColor=none;fontColor=#333333;fillColor=#f5f5f5;strokeColor=#666666;" parent="AWIagizLV03SVur9iIzs-1" vertex="1">
          <mxGeometry x="130" y="760" width="60" height="50" as="geometry" />
        </mxCell>
        <mxCell id="AWIagizLV03SVur9iIzs-68" value="" style="line;strokeWidth=1;rotatable=0;dashed=1;labelPosition=right;align=left;verticalAlign=middle;spacingTop=0;spacingLeft=6;points=[];portConstraint=eastwest;labelBackgroundColor=none;fontColor=#000000;fillColor=default;html=1;connectable=0;allowArrows=0;dropTarget=1;" parent="AWIagizLV03SVur9iIzs-1" vertex="1">
          <mxGeometry x="297" y="883" width="23" height="10" as="geometry" />
        </mxCell>
        <mxCell id="AWIagizLV03SVur9iIzs-69" value="" style="line;strokeWidth=1;rotatable=0;dashed=1;labelPosition=right;align=left;verticalAlign=middle;spacingTop=0;spacingLeft=6;points=[];portConstraint=eastwest;labelBackgroundColor=none;fontColor=#000000;fillColor=default;html=1;connectable=0;allowArrows=0;dropTarget=1;" parent="AWIagizLV03SVur9iIzs-1" vertex="1">
          <mxGeometry x="297" y="915" width="33" height="11" as="geometry" />
        </mxCell>
        <mxCell id="AWIagizLV03SVur9iIzs-70" value="" style="line;strokeWidth=1;rotatable=0;dashed=1;labelPosition=right;align=left;verticalAlign=middle;spacingTop=0;spacingLeft=6;points=[];portConstraint=eastwest;labelBackgroundColor=none;fontColor=#000000;fillColor=default;html=1;connectable=0;allowArrows=0;dropTarget=1;" parent="AWIagizLV03SVur9iIzs-1" vertex="1">
          <mxGeometry x="297" y="943" width="73" height="11" as="geometry" />
        </mxCell>
        <mxCell id="AWIagizLV03SVur9iIzs-71" value="cancelled" style="shape=rhombus;double=1;perimeter=rhombusPerimeter;whiteSpace=wrap;html=1;align=center;labelBackgroundColor=none;fontColor=#333333;strokeColor=#666666;fillColor=#f5f5f5;" parent="AWIagizLV03SVur9iIzs-1" vertex="1">
          <mxGeometry x="380" y="760" width="76.5" height="50" as="geometry" />
        </mxCell>
        <mxCell id="AWIagizLV03SVur9iIzs-72" style="edgeStyle=orthogonalEdgeStyle;rounded=0;orthogonalLoop=1;jettySize=auto;html=1;fontColor=#000000;startArrow=none;startFill=0;endArrow=none;endFill=0;entryX=0.5;entryY=1;entryDx=0;entryDy=0;shape=link;" parent="AWIagizLV03SVur9iIzs-1" source="AWIagizLV03SVur9iIzs-40" target="AWIagizLV03SVur9iIzs-71" edge="1">
          <mxGeometry relative="1" as="geometry">
            <mxPoint x="401.7500000000002" y="770" as="sourcePoint" />
            <mxPoint x="430" y="706" as="targetPoint" />
            <Array as="points">
              <mxPoint x="418" y="830" />
              <mxPoint x="418" y="830" />
            </Array>
          </mxGeometry>
        </mxCell>
        <mxCell id="AWIagizLV03SVur9iIzs-73" style="edgeStyle=orthogonalEdgeStyle;rounded=0;orthogonalLoop=1;jettySize=auto;html=1;fontColor=#000000;startArrow=block;startFill=1;endArrow=none;endFill=0;entryX=0.5;entryY=1;entryDx=0;entryDy=0;" parent="AWIagizLV03SVur9iIzs-1" source="AWIagizLV03SVur9iIzs-45" edge="1">
          <mxGeometry relative="1" as="geometry">
            <mxPoint x="610" y="770" as="sourcePoint" />
            <mxPoint x="500" y="810" as="targetPoint" />
            <Array as="points">
              <mxPoint x="500" y="780" />
              <mxPoint x="500" y="780" />
            </Array>
          </mxGeometry>
        </mxCell>
        <mxCell id="AWIagizLV03SVur9iIzs-74" value="Referral" style="swimlane;fontStyle=1;childLayout=stackLayout;horizontal=1;startSize=26;horizontalStack=0;resizeParent=1;resizeParentMax=0;resizeLast=0;collapsible=1;marginBottom=0;align=center;fontSize=14;fillColor=#dae8fc;strokeColor=#6c8ebf;labelBackgroundColor=none;fontColor=#000000;html=1;" parent="AWIagizLV03SVur9iIzs-1" vertex="1">
          <mxGeometry x="680" y="115" width="130" height="56" as="geometry" />
        </mxCell>
        <mxCell id="AWIagizLV03SVur9iIzs-75" value="creditAmount" style="text;strokeColor=none;fillColor=none;spacingLeft=4;spacingRight=4;overflow=hidden;rotatable=0;points=[[0,0.5],[1,0.5]];portConstraint=eastwest;fontSize=12;" parent="AWIagizLV03SVur9iIzs-74" vertex="1">
          <mxGeometry y="26" width="130" height="30" as="geometry" />
        </mxCell>
        <mxCell id="AWIagizLV03SVur9iIzs-76" value="Paid" style="shape=rhombus;perimeter=rhombusPerimeter;whiteSpace=wrap;html=1;align=center;labelBackgroundColor=none;fontColor=#333333;fillColor=#f5f5f5;strokeColor=#666666;" parent="AWIagizLV03SVur9iIzs-1" vertex="1">
          <mxGeometry x="470" y="760" width="60" height="50" as="geometry" />
        </mxCell>
        <mxCell id="AWIagizLV03SVur9iIzs-77" value="Review" style="swimlane;fontStyle=1;childLayout=stackLayout;horizontal=1;startSize=26;horizontalStack=0;resizeParent=1;resizeParentMax=0;resizeLast=0;collapsible=1;marginBottom=0;align=center;fontSize=14;fillColor=#dae8fc;strokeColor=#6c8ebf;" parent="AWIagizLV03SVur9iIzs-1" vertex="1">
          <mxGeometry x="640" y="580" width="160" height="116" as="geometry" />
        </mxCell>
        <mxCell id="AWIagizLV03SVur9iIzs-78" value="timestamp" style="text;strokeColor=none;fillColor=none;spacingLeft=4;spacingRight=4;overflow=hidden;rotatable=0;points=[[0,0.5],[1,0.5]];portConstraint=eastwest;fontSize=12;" parent="AWIagizLV03SVur9iIzs-77" vertex="1">
          <mxGeometry y="26" width="160" height="30" as="geometry" />
        </mxCell>
        <mxCell id="AWIagizLV03SVur9iIzs-79" value="numStars" style="text;strokeColor=none;fillColor=none;spacingLeft=4;spacingRight=4;overflow=hidden;rotatable=0;points=[[0,0.5],[1,0.5]];portConstraint=eastwest;fontSize=12;" parent="AWIagizLV03SVur9iIzs-77" vertex="1">
          <mxGeometry y="56" width="160" height="30" as="geometry" />
        </mxCell>
        <mxCell id="AWIagizLV03SVur9iIzs-80" value="comment" style="text;strokeColor=none;fillColor=none;spacingLeft=4;spacingRight=4;overflow=hidden;rotatable=0;points=[[0,0.5],[1,0.5]];portConstraint=eastwest;fontSize=12;" parent="AWIagizLV03SVur9iIzs-77" vertex="1">
          <mxGeometry y="86" width="160" height="30" as="geometry" />
        </mxCell>
        <mxCell id="AWIagizLV03SVur9iIzs-81" style="edgeStyle=orthogonalEdgeStyle;rounded=0;orthogonalLoop=1;jettySize=auto;html=1;exitX=0.5;exitY=1;exitDx=0;exitDy=0;endArrow=none;endFill=0;" parent="AWIagizLV03SVur9iIzs-1" source="AWIagizLV03SVur9iIzs-84" target="AWIagizLV03SVur9iIzs-21" edge="1">
          <mxGeometry relative="1" as="geometry">
            <Array as="points">
              <mxPoint x="730" y="470" />
            </Array>
          </mxGeometry>
        </mxCell>
        <mxCell id="AWIagizLV03SVur9iIzs-82" style="edgeStyle=orthogonalEdgeStyle;rounded=0;orthogonalLoop=1;jettySize=auto;html=1;exitX=0;exitY=0.5;exitDx=0;exitDy=0;endArrow=none;endFill=0;" parent="AWIagizLV03SVur9iIzs-1" source="AWIagizLV03SVur9iIzs-84" target="AWIagizLV03SVur9iIzs-11" edge="1">
          <mxGeometry relative="1" as="geometry">
            <Array as="points">
              <mxPoint x="760" y="420" />
              <mxPoint x="760" y="420" />
              <mxPoint x="760" y="375" />
            </Array>
          </mxGeometry>
        </mxCell>
        <mxCell id="AWIagizLV03SVur9iIzs-83" style="edgeStyle=orthogonalEdgeStyle;rounded=0;orthogonalLoop=1;jettySize=auto;html=1;exitX=1;exitY=0.5;exitDx=0;exitDy=0;entryX=0.75;entryY=0;entryDx=0;entryDy=0;endArrow=none;endFill=0;" parent="AWIagizLV03SVur9iIzs-1" source="AWIagizLV03SVur9iIzs-84" target="AWIagizLV03SVur9iIzs-77" edge="1">
          <mxGeometry relative="1" as="geometry" />
        </mxCell>
        <mxCell id="AWIagizLV03SVur9iIzs-84" value="Reviews" style="shape=rhombus;perimeter=rhombusPerimeter;whiteSpace=wrap;html=1;align=center;fillColor=#f5f5f5;strokeColor=#666666;fontColor=#333333;direction=south;" parent="AWIagizLV03SVur9iIzs-1" vertex="1">
          <mxGeometry x="730" y="450" width="60" height="40" as="geometry" />
        </mxCell>
        <mxCell id="AWIagizLV03SVur9iIzs-85" style="edgeStyle=orthogonalEdgeStyle;rounded=0;orthogonalLoop=1;jettySize=auto;html=1;startArrow=none;startFill=0;endArrow=block;endFill=1;" parent="AWIagizLV03SVur9iIzs-1" source="AWIagizLV03SVur9iIzs-86" target="AWIagizLV03SVur9iIzs-87" edge="1">
          <mxGeometry relative="1" as="geometry">
            <mxPoint x="300" y="600" as="targetPoint" />
          </mxGeometry>
        </mxCell>
        <mxCell id="AWIagizLV03SVur9iIzs-86" value="Provides" style="shape=rhombus;perimeter=rhombusPerimeter;whiteSpace=wrap;html=1;align=center;fillColor=#f5f5f5;strokeColor=#666666;fontColor=#333333;" parent="AWIagizLV03SVur9iIzs-1" vertex="1">
          <mxGeometry x="260" y="516" width="60" height="48" as="geometry" />
        </mxCell>
        <mxCell id="AWIagizLV03SVur9iIzs-87" value="Bank_Account" style="swimlane;fontStyle=1;childLayout=stackLayout;horizontal=1;startSize=26;horizontalStack=0;resizeParent=1;resizeParentMax=0;resizeLast=0;collapsible=1;marginBottom=0;align=center;fontSize=14;fillColor=#dae8fc;strokeColor=#6c8ebf;" parent="AWIagizLV03SVur9iIzs-1" vertex="1">
          <mxGeometry x="230" y="580" width="120" height="176" as="geometry" />
        </mxCell>
        <mxCell id="AWIagizLV03SVur9iIzs-88" value="acctNum" style="text;strokeColor=none;fillColor=none;spacingLeft=4;spacingRight=4;overflow=hidden;rotatable=0;points=[[0,0.5],[1,0.5]];portConstraint=eastwest;fontSize=12;fontStyle=0" parent="AWIagizLV03SVur9iIzs-87" vertex="1">
          <mxGeometry y="26" width="120" height="30" as="geometry" />
        </mxCell>
        <mxCell id="AWIagizLV03SVur9iIzs-89" value="routingNum" style="text;strokeColor=none;fillColor=none;spacingLeft=4;spacingRight=4;overflow=hidden;rotatable=0;points=[[0,0.5],[1,0.5]];portConstraint=eastwest;fontSize=12;fontStyle=0" parent="AWIagizLV03SVur9iIzs-87" vertex="1">
          <mxGeometry y="56" width="120" height="30" as="geometry" />
        </mxCell>
        <mxCell id="AWIagizLV03SVur9iIzs-90" value="acctType" style="text;strokeColor=none;fillColor=none;spacingLeft=4;spacingRight=4;overflow=hidden;rotatable=0;points=[[0,0.5],[1,0.5]];portConstraint=eastwest;fontSize=12;" parent="AWIagizLV03SVur9iIzs-87" vertex="1">
          <mxGeometry y="86" width="120" height="30" as="geometry" />
        </mxCell>
        <mxCell id="AWIagizLV03SVur9iIzs-91" value="nameOnAcct" style="text;strokeColor=none;fillColor=none;spacingLeft=4;spacingRight=4;overflow=hidden;rotatable=0;points=[[0,0.5],[1,0.5]];portConstraint=eastwest;fontSize=12;" parent="AWIagizLV03SVur9iIzs-87" vertex="1">
          <mxGeometry y="116" width="120" height="30" as="geometry" />
        </mxCell>
        <mxCell id="AWIagizLV03SVur9iIzs-92" value="nameOfBank" style="text;strokeColor=none;fillColor=none;spacingLeft=4;spacingRight=4;overflow=hidden;rotatable=0;points=[[0,0.5],[1,0.5]];portConstraint=eastwest;fontSize=12;" parent="AWIagizLV03SVur9iIzs-87" vertex="1">
          <mxGeometry y="146" width="120" height="30" as="geometry" />
        </mxCell>
        <mxCell id="AWIagizLV03SVur9iIzs-93" style="edgeStyle=orthogonalEdgeStyle;rounded=0;orthogonalLoop=1;jettySize=auto;html=1;startArrow=block;startFill=1;endArrow=none;endFill=0;" parent="AWIagizLV03SVur9iIzs-1" source="AWIagizLV03SVur9iIzs-16" target="AWIagizLV03SVur9iIzs-96" edge="1">
          <mxGeometry relative="1" as="geometry">
            <mxPoint x="440" y="371" as="targetPoint" />
          </mxGeometry>
        </mxCell>
        <mxCell id="AWIagizLV03SVur9iIzs-94" value="" style="edgeStyle=orthogonalEdgeStyle;rounded=0;orthogonalLoop=1;jettySize=auto;html=1;endArrow=none;endFill=0;" parent="AWIagizLV03SVur9iIzs-1" source="AWIagizLV03SVur9iIzs-96" target="AWIagizLV03SVur9iIzs-12" edge="1">
          <mxGeometry relative="1" as="geometry">
            <Array as="points">
              <mxPoint x="510" y="371" />
              <mxPoint x="510" y="371" />
            </Array>
          </mxGeometry>
        </mxCell>
        <mxCell id="AWIagizLV03SVur9iIzs-95" style="edgeStyle=orthogonalEdgeStyle;rounded=0;orthogonalLoop=1;jettySize=auto;html=1;exitX=0.5;exitY=1;exitDx=0;exitDy=0;startArrow=none;startFill=0;endArrow=none;endFill=0;" parent="AWIagizLV03SVur9iIzs-1" source="AWIagizLV03SVur9iIzs-96" target="AWIagizLV03SVur9iIzs-77" edge="1">
          <mxGeometry relative="1" as="geometry">
            <mxPoint x="640" y="740" as="targetPoint" />
            <Array as="points">
              <mxPoint x="460" y="430" />
              <mxPoint x="570" y="430" />
              <mxPoint x="570" y="590" />
            </Array>
          </mxGeometry>
        </mxCell>
        <mxCell id="AWIagizLV03SVur9iIzs-96" value="Reviews" style="shape=rhombus;perimeter=rhombusPerimeter;whiteSpace=wrap;html=1;align=center;fillColor=#f5f5f5;strokeColor=#666666;fontColor=#333333;" parent="AWIagizLV03SVur9iIzs-1" vertex="1">
          <mxGeometry x="430" y="347" width="60" height="48" as="geometry" />
        </mxCell>
        <mxCell id="03ZqfVmq_1u6cQ-Z8uhE-0" value="" style="line;strokeWidth=1;rotatable=0;dashed=1;labelPosition=right;align=left;verticalAlign=middle;spacingTop=0;spacingLeft=6;points=[];portConstraint=eastwest;labelBackgroundColor=none;fontColor=#000000;fillColor=default;html=1;connectable=0;allowArrows=0;dropTarget=1;" vertex="1" parent="AWIagizLV03SVur9iIzs-1">
          <mxGeometry x="236" y="623" width="47" height="10" as="geometry" />
        </mxCell>
        <mxCell id="03ZqfVmq_1u6cQ-Z8uhE-1" value="" style="line;strokeWidth=1;rotatable=0;dashed=1;labelPosition=right;align=left;verticalAlign=middle;spacingTop=0;spacingLeft=6;points=[];portConstraint=eastwest;labelBackgroundColor=none;fontColor=#000000;fillColor=default;html=1;connectable=0;allowArrows=0;dropTarget=1;" vertex="1" parent="AWIagizLV03SVur9iIzs-1">
          <mxGeometry x="236" y="655" width="55" height="11" as="geometry" />
        </mxCell>
      </root>
    </mxGraphModel>
  </diagram>
</mxfile>
